<svg xmlns="http://www.w3.org/2000/svg" height="48" viewBox="0 -960 960 960" width="48"><path d="M252.5-86.5V-100q0-141 57.75-215.25T464-480q-97-90.5-154.75-164.75T251.5-860v-14.5h21.659v14.5q0 23 1.585 44t5.756 39.5h399.141q2.929-18.5 4.894-39.5 1.965-21 1.965-44v-14.5h22v14.5q0 141-58.25 215.25T496-480q96 89.5 154.25 164.25T708.5-100v13.5h-21.659V-100q0-23-2.085-44t-5.256-40.5H281.359q-3.929 19.5-5.394 40.5-1.465 21-1.465 44v13.5h-22Zm96-542h263.182Q633.5-656 649.25-687q15.75-31 26.25-67.5h-390q8 37.65 24.062 68.238 16.063 30.587 38.938 57.762ZM480-495q33.103-30.833 61.302-57.417Q569.5-579 593-606.5H366q23.245 27.833 52.123 54.417Q447-525.5 480-495ZM367-354.5h226q-23.5-26.5-51.698-53.083Q513.103-434.167 480-465q-33.103 30.833-61.302 57.417Q390.5-381 367-354.5Zm-80.5 148h389q-10-36.5-26.062-67.138-16.063-30.638-37.938-58.862h-262q-22.469 28.167-38.484 59.333Q295-242 286.5-206.5Z"/></svg>