<svg xmlns="http://www.w3.org/2000/svg" height="48" viewBox="0 -960 960 960" width="48"><path d="M469.5-149.5v-312H463q-54.176 0-102.286-20T275.25-539q-36.25-37.5-56-87.261Q199.5-676.022 199.5-730v-28.5h26.941q51.745 0 101.086 21.09 49.34 21.091 86.677 58.614 33.296 33.296 52.599 76.158Q486.106-559.776 491-513.5q9.706-20.375 23.208-39.513 13.503-19.137 30.792-35.92 37.363-37.386 86.729-58.477 49.366-21.09 102.938-21.09H762.5v28.5q0 53.882-21.112 103.555-21.111 49.673-57.51 87.309Q647-411.5 597.586-392 548.171-372.5 496-372.5h-4.5v223h-22Zm.5-335q0-51.79-18.62-97.896Q432.761-628.503 398-662.5q-34-35.5-79.983-54.75-45.984-19.25-96.517-19.25 0 53.471 17.75 100.235Q257-589.5 292-556q36 37.5 80.868 54.5 44.867 17 97.132 17Zm21.5 90q50.422 0 96.461-18.25T668-466.5q34.5-33 53.5-79.765 19-46.764 19-100.235-52.765 0-98.632 19.25Q596-608 562-573q-37 37-53.75 82.5t-16.75 96Zm0 0Zm-21.5-90Z"/></svg>