<?xml version="1.0" encoding="iso-8859-1"?>
<!-- Uploaded to: SVG Repo, www.svgrepo.com, Generator: SVG Repo Mixer Tools -->
<svg fill="#000000" height="800px" width="800px" version="1.1" id="Layer_1" xmlns="http://www.w3.org/2000/svg" xmlns:xlink="http://www.w3.org/1999/xlink" 
	 viewBox="0 0 257.516 257.516" xml:space="preserve">
<g>
	<g>
		<g>
			<path d="M255.336,27.123l-62.644-16.408l-0.736,0.568l-0.736-0.568l-62.288,16.32l-62.288-16.32l-0.148,0.116
				c-0.528-0.184-1.096-0.268-1.684-0.116L2.172,27.127L0,29.943v214.028l3.648,2.812l62.084-16.264l62.08,16.264
				c0.248,0.064,0.496,0.096,0.74,0.096c0.436,0,0.844-0.128,1.228-0.312l0.28,0.216l61.904-16.216l61.904,16.216l3.648-2.812
				V29.939L255.336,27.123z M251.688,240.199l-56.824-14.888v-52.8v-4.272c0-1.608-1.304-2.908-2.908-2.908
				c-1.608,0-2.908,1.304-2.908,2.908v4.272v52.804l-56.824,14.888v-78.8c0-1.608-1.3-2.908-2.908-2.908
				c-1.608,0-2.908,1.3-2.908,2.908v79l-57.592-15.092V69.087c0-1.608-1.304-2.908-2.908-2.908S63,67.479,63,69.087v156.132
				l-57.184,14.98V32.179L63,17.199v28.632c0,1.608,1.3,2.904,2.908,2.904c1.608,0,2.908-1.3,2.908-2.904v-28.54l57.592,15.088
				v85.424c0,1.608,1.304,2.904,2.908,2.904c1.608,0,2.908-1.3,2.908-2.904V32.179l56.824-14.888v58.464v3.076
				c0,1.608,1.3,2.908,2.908,2.908c1.608,0,2.908-1.3,2.908-2.908v-3.076v-58.46l56.824,14.888V240.199z"/>
			<path d="M225.528,176.867c4.272-5.02,8.54-10.044,12.812-15.064c2.412-2.836-1.684-6.968-4.112-4.112
				c-4.208,4.948-8.416,9.892-12.624,14.84c-4.256-4.712-8.516-9.424-12.776-14.136c-2.516-2.784-6.616,1.34-4.112,4.112
				c4.364,4.828,8.732,9.656,13.096,14.488l-11.688,13.74c-2.412,2.832,1.684,6.968,4.112,4.112
				c3.832-4.504,7.66-9.008,11.492-13.512c4.376,4.84,8.752,9.684,13.132,14.524c2.516,2.784,6.616-1.34,4.112-4.112
				C234.492,186.783,230.012,181.827,225.528,176.867z"/>
			<path d="M132.344,133.743c-2.208,2.676-4.38,5.38-6.552,8.08l-0.788,0.98c-0.708,0.88-0.568,2.172,0.312,2.88
				c0.38,0.304,0.836,0.456,1.288,0.456c0.596,0,1.196-0.264,1.6-0.768l0.784-0.976c2.16-2.688,4.324-5.38,6.52-8.04
				c0.72-0.876,0.596-2.168-0.276-2.888C134.356,132.751,133.064,132.871,132.344,133.743z"/>
			<path d="M141.62,129.155c2.32-2.632,4.648-5.12,6.924-7.396c0.804-0.8,0.804-2.1,0-2.9c-0.8-0.804-2.1-0.804-2.9,0
				c-2.336,2.336-4.724,4.888-7.096,7.576l-0.92,1.044c-0.744,0.856-0.656,2.148,0.196,2.896c0.392,0.34,0.868,0.504,1.352,0.504
				c0.572,0,1.14-0.24,1.544-0.704L141.62,129.155z"/>
			<path d="M119.896,149.115c-2.444,2.98-4.924,5.932-7.48,8.804c-0.752,0.848-0.676,2.14,0.172,2.896
				c0.392,0.348,0.88,0.516,1.364,0.516c0.564,0,1.128-0.232,1.536-0.688c2.588-2.912,5.1-5.9,7.584-8.92
				c0.72-0.876,0.588-2.172-0.284-2.888C121.916,148.115,120.628,148.239,119.896,149.115z"/>
			<path d="M106.944,163.807c-2.732,2.8-5.36,5.272-8.024,7.548c0,0-0.312,0.264-0.316,0.264c-0.864,0.732-0.972,2.028-0.24,2.892
				c0.404,0.476,0.984,0.724,1.564,0.724c0.472,0,0.94-0.16,1.328-0.484l0.316-0.268c2.772-2.372,5.488-4.928,8.308-7.816
				c0.792-0.812,0.776-2.112-0.032-2.9C109.032,162.987,107.732,162.999,106.944,163.807z"/>
			<path d="M229.188,152.507c0.34,0.216,0.72,0.32,1.1,0.32c0.676,0,1.34-0.336,1.732-0.948c0.684-1.076,1.032-2.272,1.032-3.552
				c0-1.252-0.352-2.56-1.012-3.78c-0.544-0.992-1.792-1.364-2.784-0.82s-1.364,1.788-0.82,2.784c0.34,0.62,0.516,1.248,0.516,1.816
				c0,0.492-0.128,0.932-0.392,1.348C227.948,150.627,228.228,151.895,229.188,152.507z"/>
			<path d="M210.936,145.707c0.376,0.672,1.072,1.048,1.792,1.048c0.34,0,0.684-0.084,1-0.264c2.936-1.644,6.392-3.428,9.776-3.152
				c1.14,0.092,2.12-0.752,2.208-1.884c0.092-1.128-0.748-2.116-1.88-2.208c-4.4-0.356-8.4,1.584-12.108,3.668
				C210.736,143.467,210.384,144.715,210.936,145.707z"/>
			<path d="M160.956,105.835c-3.084,2.16-6.208,4.636-9.296,7.356c-0.848,0.748-0.928,2.048-0.18,2.896
				c0.404,0.46,0.968,0.692,1.54,0.692c0.484,0,0.964-0.168,1.36-0.512c2.964-2.62,5.972-5,8.932-7.072
				c0.928-0.652,1.152-1.928,0.5-2.856C163.168,105.407,161.888,105.187,160.956,105.835z"/>
			<path d="M202.824,103.931c0,2.124-0.796,4.704-2.308,7.46c-0.544,0.992-0.18,2.24,0.816,2.784
				c0.312,0.172,0.648,0.252,0.984,0.252c0.724,0,1.428-0.384,1.8-1.064c1.868-3.404,2.812-6.58,2.812-9.432
				c0-1.148-0.156-2.252-0.468-3.276c-0.328-1.08-1.46-1.7-2.56-1.368c-1.084,0.332-1.696,1.476-1.368,2.56
				C202.728,102.487,202.824,103.187,202.824,103.931z"/>
			<path d="M187.62,156.627c-1.004,0.46-1.756,0.648-2.492,0.52c-2.024-0.316-2.66-2.936-2.84-4.048
				c-0.176-1.12-1.212-1.892-2.352-1.7c-1.116,0.18-1.88,1.232-1.696,2.352c0.668,4.16,3.008,6.944,6.256,7.452
				c0.352,0.052,0.7,0.08,1.04,0.08c1.176,0,2.412-0.3,3.772-0.92c1.032-0.468,1.488-1.684,1.02-2.716
				C189.872,156.615,188.644,156.171,187.62,156.627z"/>
			<path d="M207.44,147.723c-0.568-0.988-1.832-1.324-2.8-0.756l-10.084,5.776c-0.984,0.564-1.328,1.816-0.76,2.8
				c0.376,0.664,1.068,1.032,1.78,1.032c0.348,0,0.696-0.084,1.016-0.272l10.092-5.78
				C207.664,149.963,208.004,148.707,207.44,147.723z"/>
			<path d="M199.196,120.307c0.712-0.88,0.584-2.172-0.292-2.888c-0.872-0.716-2.164-0.588-2.888,0.292l-1.48,1.812
				c-1.976,2.404-3.964,4.832-5.848,7.32c-0.684,0.904-0.508,2.192,0.396,2.872c0.368,0.28,0.804,0.416,1.24,0.416
				c0.616,0,1.228-0.28,1.636-0.812c1.852-2.444,3.808-4.832,5.748-7.196L199.196,120.307z"/>
			<path d="M189.6,93.551c-0.896,0.144-1.776,0.312-2.656,0.5c-1.104,0.236-1.816,1.324-1.58,2.432
				c0.208,0.964,1.056,1.624,2.004,1.624c0.144,0,0.288-0.012,0.436-0.044c0.812-0.172,1.636-0.328,2.472-0.468
				c3.208-0.536,5.932-0.484,7.968,0.176c1.076,0.348,2.232-0.244,2.58-1.324c0.348-1.076-0.244-2.236-1.324-2.584
				C196.832,93.003,193.472,92.907,189.6,93.551z"/>
			<path d="M105.26,79.211c0.08,0,0.156-0.004,0.236-0.012c1.124-0.128,1.932-1.144,1.808-2.272
				c-0.5-4.356-1.952-8.296-4.164-11.468c-0.04-0.076-0.092-0.168-0.14-0.24l-3.38,2.324c1.972,2.86,3.188,6.172,3.608,9.852
				C103.344,78.439,104.236,79.211,105.26,79.211z"/>
			<path d="M95.828,106.247c-1.08,2.16-2.188,4.328-3.296,6.508l-0.392,0.768c-0.516,1.008-0.116,2.244,0.896,2.76
				c0.3,0.152,0.616,0.224,0.932,0.224c0.748,0,1.468-0.408,1.828-1.12l0.392-0.764c1.112-2.192,2.228-4.368,3.308-6.536
				c0.524-1.04,1.036-2.1,1.536-3.176c0.472-1.028,0.028-2.248-1-2.724s-2.248-0.028-2.724,1
				C96.832,104.223,96.332,105.243,95.828,106.247z"/>
			<path d="M91.196,119.879c-1.008-0.5-2.24-0.092-2.748,0.928c-2.032,4.096-3.612,7.472-4.976,10.628
				c-0.448,1.04,0.028,2.248,1.068,2.696c0.264,0.116,0.54,0.168,0.816,0.168c0.792,0,1.544-0.464,1.88-1.24
				c1.336-3.088,2.888-6.404,4.888-10.432C92.628,121.615,92.216,120.383,91.196,119.879z"/>
			<path d="M104.212,97.223c1.484-4.152,2.48-8.08,2.956-11.684c0.144-1.12-0.644-2.152-1.768-2.3
				c-1.116-0.14-2.156,0.64-2.304,1.768c-0.436,3.308-1.36,6.952-2.748,10.828c-0.384,1.068,0.172,2.244,1.236,2.624
				c0.228,0.08,0.468,0.12,0.692,0.12C103.12,98.579,103.912,98.059,104.212,97.223z"/>
			<path d="M56.44,56.679c-3.592,1.156-7.172,2.496-10.636,3.988c-1.044,0.448-1.524,1.652-1.08,2.696
				c0.336,0.776,1.096,1.24,1.888,1.24c0.272,0,0.544-0.052,0.808-0.164c3.348-1.436,6.808-2.732,10.28-3.848l0.46-0.152
				c1.068-0.356,1.428-1.44,1.08-2.512C58.888,56.855,57.52,56.335,56.44,56.679z"/>
			<path d="M167.228,104.175c0.376,0.668,1.072,1.044,1.788,1.044c0.344,0,0.688-0.084,1.008-0.264
				c3.38-1.908,6.824-3.5,10.236-4.728c1.064-0.384,1.616-1.556,1.232-2.624c-0.388-1.068-1.548-1.62-2.628-1.236
				c-3.62,1.304-7.276,2.992-10.856,5.016C167.02,101.935,166.672,103.191,167.228,104.175z"/>
			<path d="M41.072,65.071c-0.516-1.008-1.752-1.4-2.76-0.896c-3.484,1.784-6.936,3.76-10.26,5.88
				c-0.952,0.608-1.232,1.88-0.624,2.832c0.392,0.612,1.056,0.948,1.732,0.948c0.38,0,0.76-0.104,1.104-0.324
				c3.212-2.048,6.544-3.964,9.912-5.684C41.184,67.315,41.588,66.083,41.072,65.071z"/>
			<path d="M180.504,147.363c0.176,0.044,0.352,0.068,0.524,0.068c0.908,0,1.74-0.608,1.98-1.524c0.864-3.24,2.32-6.532,4.46-10.06
				c0.584-0.968,0.276-2.232-0.692-2.816c-0.964-0.58-2.228-0.276-2.816,0.692c-2.344,3.872-3.952,7.516-4.916,11.136
				C178.756,145.951,179.404,147.071,180.504,147.363z"/>
			<path d="M78.692,152.987c0.144,0.028,0.284,0.044,0.428,0.044c0.944,0,1.8-0.66,2.004-1.628c0.728-3.46,1.76-7.024,3.152-10.892
				c0.38-1.068-0.172-2.244-1.24-2.624c-1.064-0.38-2.24,0.176-2.624,1.24c-1.448,4.048-2.532,7.788-3.3,11.436
				C76.88,151.663,77.588,152.751,78.692,152.987z"/>
			<path d="M80.268,170.303c-0.076-0.476-0.136-0.952-0.188-1.42c-0.192-1.768-0.288-3.584-0.288-5.408
				c-0.004-1.436,0.056-2.864,0.172-4.288c0.092-1.128-0.752-2.12-1.88-2.212c-1.104-0.056-2.12,0.748-2.208,1.88
				c-0.124,1.54-0.192,3.08-0.188,4.628c0,1.968,0.104,3.932,0.312,5.848c0.06,0.532,0.128,1.072,0.212,1.612
				c0.16,1.008,1.032,1.732,2.024,1.732c0.108,0,0.216-0.008,0.324-0.024C79.68,172.471,80.44,171.419,80.268,170.303z"/>
			<path d="M76.856,57.131v-0.004l0.04-2.052l-0.32-2.052c-3.672,0-7.48,0.44-11.648,1.34c-1.112,0.24-1.812,1.332-1.572,2.436
				c0.204,0.96,1.056,1.62,2,1.62c0.144,0,0.292-0.012,0.436-0.044c3.872-0.84,7.392-1.244,11.044-1.244H76.856z"/>
			<path d="M92.36,175.879c-0.692,0.32-1.408,0.584-2.152,0.784c-0.856,0.228-1.748,0.54-2.632,0.34c-1.66,0-3.216-0.424-4.38-1.192
				c-0.944-0.624-2.22-0.36-2.84,0.584c-0.624,0.944-0.364,2.22,0.58,2.84c1.856,1.228,4.152,1.872,6.636,1.872H87.6
				c1.248,0,2.48-0.164,3.672-0.48c0.964-0.26,1.892-0.604,2.796-1.012c1.028-0.472,1.48-1.692,1.012-2.72
				C94.608,175.859,93.376,175.415,92.36,175.879z"/>
			<path d="M13.456,85.811c0.492,0,0.98-0.176,1.376-0.532c2.804-2.532,5.776-4.964,8.844-7.228c0.916-0.672,1.108-1.96,0.436-2.868
				c-0.676-0.912-1.964-1.108-2.868-0.436c-3.172,2.348-6.252,4.868-9.156,7.492c-0.844,0.76-0.908,2.056-0.148,2.896
				C12.34,85.583,12.896,85.811,13.456,85.811z"/>
			<path d="M84.504,57.991c3.664,0.856,7.076,2.348,9.868,4.32c0.356,0.256,0.768,0.376,1.184,0.376c0.64,0,1.272-0.304,1.676-0.868
				c0.652-0.924,0.432-2.204-0.492-2.856c-3.22-2.276-7.128-3.992-11.3-4.964c-1.112-0.272-2.208,0.432-2.464,1.532
				C82.712,56.635,83.396,57.735,84.504,57.991z"/>
			<path d="M150.288,57.875c1.212-1.044,2.368-2.144,3.536-3.24c0.668,0.632,1.336,1.264,2.004,1.896
				c1.916,1.816,4.824-1.08,2.9-2.9c-1.144-1.084-2.288-2.164-3.428-3.248c-0.812-0.772-2.088-0.792-2.9,0
				c-1.624,1.58-3.292,3.108-5.008,4.588C145.384,56.703,148.296,59.595,150.288,57.875z"/>
			<path d="M224.712,106.315c-0.648-0.792-2.264-0.808-2.9,0c-2.092,2.644-4.264,5.22-6.512,7.736c-1.756,1.96,1.136,4.872,2.9,2.9
				c1.74-1.944,3.392-3.964,5.04-5.984c1.012,1.24,2.02,2.48,3.032,3.724c1.668,2.048,4.556-0.872,2.9-2.9
				C227.688,109.963,226.2,108.139,224.712,106.315z"/>
			<path d="M206.808,61.743c1.74-1.944,3.392-3.964,5.04-5.984c1.012,1.24,2.024,2.48,3.036,3.72c1.668,2.048,4.556-0.872,2.9-2.9
				c-1.484-1.824-2.972-3.648-4.46-5.472c-0.644-0.792-2.26-0.808-2.9,0c-2.096,2.644-4.264,5.22-6.516,7.736
				C202.152,60.803,205.044,63.715,206.808,61.743z"/>
			<path d="M163.992,80.371c1.74-1.944,3.392-3.964,5.04-5.984c1.012,1.24,2.024,2.48,3.036,3.72c1.668,2.048,4.556-0.872,2.9-2.9
				c-1.484-1.824-2.972-3.648-4.46-5.472c-0.644-0.792-2.26-0.808-2.9,0c-2.096,2.644-4.264,5.22-6.516,7.736
				C159.336,79.431,162.228,82.343,163.992,80.371z"/>
			<path d="M155.296,140.343c-0.812-0.768-2.088-0.792-2.9,0c-1.624,1.58-3.292,3.108-5.008,4.592c-2,1.728,0.912,4.62,2.9,2.9
				c1.212-1.044,2.368-2.144,3.536-3.24c0.668,0.632,1.336,1.264,2.004,1.896c1.916,1.816,4.824-1.08,2.9-2.9L155.296,140.343z"/>
			<path d="M174.488,180.943c-0.812-0.768-2.088-0.792-2.9,0c-1.624,1.58-3.292,3.108-5.008,4.592c-2,1.728,0.912,4.62,2.9,2.9
				c1.212-1.044,2.368-2.144,3.536-3.24c0.668,0.632,1.336,1.264,2.004,1.896c1.916,1.816,4.824-1.08,2.9-2.9
				C176.772,183.107,175.628,182.023,174.488,180.943z"/>
			<path d="M103.956,192.347c-0.812-0.768-2.088-0.792-2.9,0c-1.624,1.58-3.292,3.108-5.008,4.592c-2,1.728,0.912,4.62,2.9,2.9
				c1.212-1.044,2.368-2.144,3.536-3.24c0.668,0.632,1.336,1.264,2.004,1.896c1.916,1.816,4.824-1.08,2.9-2.9
				C106.244,194.511,105.1,193.427,103.956,192.347z"/>
			<path d="M150.044,211.695c-0.648-0.792-2.264-0.808-2.9,0c-2.092,2.644-4.264,5.22-6.512,7.736c-1.756,1.96,1.136,4.872,2.9,2.9
				c1.74-1.944,3.392-3.964,5.04-5.984l3.032,3.724c1.668,2.048,4.556-0.872,2.9-2.9
				C153.02,215.343,151.532,213.519,150.044,211.695z"/>
			<path d="M50.392,90.251c-0.812-0.768-2.088-0.792-2.9,0c-1.624,1.58-3.292,3.108-5.008,4.592c-2,1.728,0.912,4.62,2.9,2.9
				c1.212-1.044,2.368-2.144,3.536-3.24c0.668,0.632,1.336,1.264,2.004,1.896c1.916,1.816,4.824-1.08,2.9-2.9
				C52.676,92.415,51.532,91.331,50.392,90.251z"/>
			<path d="M23.88,123.427c-0.648-0.792-2.264-0.808-2.9,0c-2.092,2.644-4.264,5.22-6.512,7.736c-1.756,1.96,1.136,4.872,2.9,2.9
				c1.74-1.944,3.392-3.96,5.04-5.984c1.012,1.24,2.02,2.48,3.032,3.724c1.668,2.048,4.556-0.872,2.9-2.9
				C26.856,127.075,25.368,125.251,23.88,123.427z"/>
			<path d="M35.676,45.103c1.74-1.944,3.392-3.964,5.04-5.984c1.012,1.24,2.024,2.48,3.036,3.72c1.668,2.048,4.556-0.872,2.9-2.9
				c-1.484-1.824-2.972-3.648-4.46-5.472c-0.644-0.792-2.26-0.808-2.9,0c-2.096,2.644-4.264,5.22-6.516,7.736
				C31.02,44.167,33.912,47.079,35.676,45.103z"/>
			<path d="M97.68,149.407c1.74-1.944,3.392-3.964,5.04-5.984c1.012,1.24,2.024,2.48,3.036,3.724c1.668,2.048,4.556-0.872,2.9-2.9
				c-1.484-1.824-2.972-3.648-4.46-5.472c-0.644-0.792-2.26-0.808-2.9,0c-2.096,2.644-4.264,5.22-6.516,7.736
				C93.024,148.467,95.916,151.379,97.68,149.407z"/>
			<path d="M47.676,168.743c-0.644-0.792-2.264-0.808-2.9,0c-2.092,2.644-4.264,5.22-6.512,7.736c-1.756,1.964,1.136,4.876,2.9,2.9
				c1.74-1.944,3.392-3.964,5.04-5.984c1.012,1.24,2.02,2.48,3.032,3.724c1.668,2.048,4.556-0.872,2.9-2.9
				C50.648,172.395,49.164,170.567,47.676,168.743z"/>
			<path d="M108.656,49.991c1.208-1.044,2.368-2.144,3.536-3.24c0.668,0.632,1.336,1.264,2.004,1.896
				c1.916,1.816,4.824-1.08,2.9-2.9c-1.144-1.08-2.288-2.164-3.428-3.248c-0.812-0.772-2.088-0.792-2.9,0
				c-1.624,1.58-3.292,3.108-5.008,4.588C103.752,48.819,106.664,51.711,108.656,49.991z"/>
			<path d="M244.46,73.015c-1.124,0-2.036,0.912-2.036,2.036v13.012c0,1.124,0.912,2.036,2.036,2.036s2.036-0.912,2.036-2.036
				V75.051C246.496,73.927,245.584,73.015,244.46,73.015z"/>
			<path d="M214.116,31.607l28.308,9.636v21.572c0,1.124,0.908,2.036,2.036,2.036c1.124,0,2.036-0.912,2.036-2.036V39.787
				l-1.38-1.928l-29.684-10.104c-1.08-0.364-2.224,0.208-2.584,1.272C212.488,30.087,213.056,31.243,214.116,31.607z"/>
			<path d="M13.456,214.827c-1.132,0-2.052,0.92-2.052,2.052v10.68c0,1.132,0.92,2.052,2.052,2.052s2.052-0.92,2.052-2.052v-10.68
				C15.508,215.743,14.588,214.827,13.456,214.827z"/>
			<path d="M13.456,166.527c-1.132,0-2.052,0.92-2.052,2.052v36.976c0,1.132,0.92,2.052,2.052,2.052s2.052-0.92,2.052-2.052v-36.98
				C15.508,167.443,14.588,166.527,13.456,166.527z"/>
		</g>
	</g>
</g>
</svg>