<svg xmlns="http://www.w3.org/2000/svg" xmlns:xlink="http://www.w3.org/1999/xlink" width="44" zoomAndPan="magnify" viewBox="0 0 33 23.999999" height="32" preserveAspectRatio="xMidYMid meet" version="1.0"><defs><filter x="0%" y="0%" width="100%" height="100%" id="1f3e712cf3"><feColorMatrix values="0 0 0 0 1 0 0 0 0 1 0 0 0 0 1 0 0 0 1 0" color-interpolation-filters="sRGB"/></filter><clipPath id="f2adf535b6"><path d="M 2.46875 3.421875 L 30.316406 3.421875 L 30.316406 23 L 2.46875 23 Z M 2.46875 3.421875 " clip-rule="nonzero"/></clipPath><clipPath id="27393a8687"><path d="M 4.507812 3.464844 C 32.164062 6.878906 32.164062 17.652344 28.738281 20.539062 C 24.875 23.875 7.667969 23.722656 3.894531 20.308594 C 0.558594 17.273438 4.507812 3.464844 4.507812 3.464844 " clip-rule="nonzero"/></clipPath><mask id="78e167d8a7"><g filter="url(#1f3e712cf3)"><rect x="-3.3" width="39.6" fill="#000000" y="-2.4" height="28.799999" fill-opacity="0.28"/></g></mask><clipPath id="6364af326d"><path d="M 0.46875 0.421875 L 28.316406 0.421875 L 28.316406 20 L 0.46875 20 Z M 0.46875 0.421875 " clip-rule="nonzero"/></clipPath><clipPath id="1b418fd721"><path d="M 2.507812 0.464844 C 30.164062 3.878906 30.164062 14.652344 26.738281 17.539062 C 22.875 20.875 5.667969 20.722656 1.894531 17.308594 C -1.441406 14.273438 2.507812 0.464844 2.507812 0.464844 " clip-rule="nonzero"/></clipPath><clipPath id="fd1c85e67c"><rect x="0" width="29" y="0" height="20"/></clipPath></defs><g clip-path="url(#f2adf535b6)"><g clip-path="url(#27393a8687)"><g mask="url(#78e167d8a7)"><g transform="matrix(1, 0, 0, 1, 2, 3)"><g clip-path="url(#fd1c85e67c)"><g clip-path="url(#6364af326d)"><g clip-path="url(#1b418fd721)"><rect x="-9.26" width="47.52" fill="#749677" height="34.559999" y="-8.28" fill-opacity="1"/></g></g></g></g></g></g></g></svg>