<svg xmlns="http://www.w3.org/2000/svg" xmlns:xlink="http://www.w3.org/1999/xlink" width="67" zoomAndPan="magnify" viewBox="0 0 50.25 25.5" height="34" preserveAspectRatio="xMidYMid meet" version="1.0"><defs><filter x="0%" y="0%" width="100%" height="100%" id="80f18194af"><feColorMatrix values="0 0 0 0 1 0 0 0 0 1 0 0 0 0 1 0 0 0 1 0" color-interpolation-filters="sRGB"/></filter><clipPath id="a5c95f7263"><path d="M 2.261719 3.609375 L 47.566406 3.609375 L 47.566406 25 L 2.261719 25 Z M 2.261719 3.609375 " clip-rule="nonzero"/></clipPath><clipPath id="84b6ccb1ec"><path d="M 4.5 3.6875 C 49.609375 8.082031 49.609375 18.109375 46.148438 21.503906 C 40.605469 26.726562 8.851562 26.210938 3.546875 20.808594 C 0.234375 17.261719 4.5 3.6875 4.5 3.6875 " clip-rule="nonzero"/></clipPath><mask id="d1662419fb"><g filter="url(#80f18194af)"><rect x="-5.025" width="60.3" fill="#000000" y="-2.55" height="30.6" fill-opacity="0.28"/></g></mask><clipPath id="31d39309c3"><path d="M 0.261719 0.609375 L 45.566406 0.609375 L 45.566406 21.714844 L 0.261719 21.714844 Z M 0.261719 0.609375 " clip-rule="nonzero"/></clipPath><clipPath id="18052fe11c"><path d="M 2.5 0.6875 C 47.609375 5.082031 47.609375 15.109375 44.148438 18.503906 C 38.605469 23.726562 6.851562 23.210938 1.546875 17.808594 C -1.765625 14.261719 2.5 0.6875 2.5 0.6875 " clip-rule="nonzero"/></clipPath><clipPath id="d57c5f19fc"><rect x="0" width="46" y="0" height="22"/></clipPath></defs><g clip-path="url(#a5c95f7263)"><g clip-path="url(#84b6ccb1ec)"><g mask="url(#d1662419fb)"><g transform="matrix(1, 0, 0, 1, 2, 3)"><g clip-path="url(#d57c5f19fc)"><g clip-path="url(#31d39309c3)"><g clip-path="url(#18052fe11c)"><path fill="#6c6a18" d="M -1.621094 -2.398438 L 47.351562 -2.398438 L 47.351562 21.664062 L -1.621094 21.664062 Z M -1.621094 -2.398438 " fill-opacity="1" fill-rule="nonzero"/></g></g></g></g></g></g></g></svg>