<svg xmlns="http://www.w3.org/2000/svg" xmlns:xlink="http://www.w3.org/1999/xlink" width="300" zoomAndPan="magnify" viewBox="0 0 109.5 30.000001" height="80" preserveAspectRatio="xMidYMid meet" version="1.0"><defs><filter x="0%" y="0%" width="100%" height="100%" id="98812b43c2"><feColorMatrix values="0 0 0 0 1 0 0 0 0 1 0 0 0 0 1 0 0 0 1 0" color-interpolation-filters="sRGB"/></filter><clipPath id="3f65d16fa4"><path d="M 4 2.558594 L 104.839844 2.558594 L 104.839844 25.960938 L 4 25.960938 Z M 4 2.558594 " clip-rule="nonzero"/></clipPath><clipPath id="316edbf86f"><path d="M 8.609375 4.324219 C 34.519531 9.613281 46.421875 9.832031 53.898438 9.832031 C 58.90625 9.761719 61.449219 9.6875 66.671875 9.097656 C 74.949219 8.070312 92.367188 0.0742188 98.390625 3.519531 C 102.601562 5.867188 106.230469 14.898438 104.269531 18.5 C 101.292969 24.007812 79.300781 24.007812 67.980469 25.179688 C 58.109375 26.136719 48.164062 25.988281 40.035156 25.769531 C 33.722656 25.546875 28.929688 25.179688 23.199219 24.300781 C 17.101562 23.34375 6.648438 23.785156 4.472656 20.113281 C 2.4375 16.734375 8.609375 4.324219 8.609375 4.324219 " clip-rule="nonzero"/></clipPath><mask id="98879ad2f2"><g filter="url(#98812b43c2)"><rect x="-10.95" width="131.4" fill="#000000" y="-3" height="36.000001" fill-opacity="1"/></g></mask><clipPath id="ba152023b0"><path d="M 0 0.558594 L 100.839844 0.558594 L 100.839844 23.960938 L 0 23.960938 Z M 0 0.558594 " clip-rule="nonzero"/></clipPath><clipPath id="3df209ad3d"><path d="M 4.609375 2.324219 C 30.519531 7.613281 42.421875 7.832031 49.898438 7.832031 C 54.90625 7.761719 57.449219 7.6875 62.671875 7.097656 C 70.949219 6.070312 88.367188 -1.925781 94.390625 1.519531 C 98.601562 3.867188 102.230469 12.898438 100.269531 16.5 C 97.292969 22.007812 75.300781 22.007812 63.980469 23.179688 C 54.109375 24.136719 44.164062 23.988281 36.035156 23.769531 C 29.722656 23.546875 24.929688 23.179688 19.199219 22.300781 C 13.101562 21.34375 2.648438 21.785156 0.472656 18.113281 C -1.5625 14.734375 4.609375 2.324219 4.609375 2.324219 " clip-rule="nonzero"/></clipPath><clipPath id="fd6b2a3fe7"><rect x="0" width="101" y="0" height="24"/></clipPath></defs><g clip-path="url(#3f65d16fa4)"><g clip-path="url(#316edbf86f)"><g mask="url(#98879ad2f2)"><g transform="matrix(1, 0, 0, 1, 4, 2)"><g clip-path="url(#fd6b2a3fe7)"><g clip-path="url(#ba152023b0)"><g clip-path="url(#3df209ad3d)"><rect x="-28.09" width="157.68" fill="#6a80c2" height="43.200001" y="-8.6" fill-opacity="1"/></g></g></g></g></g></g></g></svg>