<svg xmlns="http://www.w3.org/2000/svg" xmlns:xlink="http://www.w3.org/1999/xlink" width="170" zoomAndPan="magnify" viewBox="0 0 57.75 24.749999" height="75" preserveAspectRatio="xMidYMid meet" version="1.0"><defs><filter x="0%" y="0%" width="100%" height="100%" id="4465b7bd9f"><feColorMatrix values="0 0 0 0 1 0 0 0 0 1 0 0 0 0 1 0 0 0 1 0" color-interpolation-filters="sRGB"/></filter><clipPath id="3175761dcb"><path d="M 2.414062 4.152344 L 54.925781 4.152344 L 54.925781 24 L 2.414062 24 Z M 2.414062 4.152344 " clip-rule="nonzero"/></clipPath><clipPath id="dec946ea91"><path d="M 3.753906 4.171875 C 57.066406 7.175781 57.066406 16.71875 53.652344 20.25 C 47.636719 26.378906 10.289062 26.824219 4.125 20.847656 C 0.5625 17.320312 3.753906 4.171875 3.753906 4.171875 " clip-rule="nonzero"/></clipPath><mask id="2cf45410d1"><g filter="url(#4465b7bd9f)"><rect x="-5.775" width="69.3" fill="#000000" y="-2.475" height="29.699999" fill-opacity="1"/></g></mask><clipPath id="9ab829f6a6"><path d="M 0.414062 0.152344 L 52.925781 0.152344 L 52.925781 19.996094 L 0.414062 19.996094 Z M 0.414062 0.152344 " clip-rule="nonzero"/></clipPath><clipPath id="ea8dd3e7ab"><path d="M 1.753906 0.171875 C 55.066406 3.175781 55.066406 12.71875 51.652344 16.25 C 45.636719 22.378906 8.289062 22.824219 2.125 16.847656 C -1.4375 13.320312 1.753906 0.171875 1.753906 0.171875 " clip-rule="nonzero"/></clipPath><clipPath id="c1af81f6dc"><rect x="0" width="53" y="0" height="20"/></clipPath></defs><g clip-path="url(#3175761dcb)"><g clip-path="url(#dec946ea91)"><g mask="url(#2cf45410d1)"><g transform="matrix(1, 0, 0, 1, 2, 4)"><g clip-path="url(#c1af81f6dc)"><g clip-path="url(#9ab829f6a6)"><g clip-path="url(#ea8dd3e7ab)"><path fill="#d29f5e" d="M -1.214844 -3.285156 L 54.640625 -3.285156 L 54.640625 19.855469 L -1.214844 19.855469 Z M -1.214844 -3.285156 " fill-opacity="1" fill-rule="nonzero"/></g></g></g></g></g></g></g></svg>