<svg xmlns="http://www.w3.org/2000/svg" height="48" viewBox="0 -960 960 960" width="48"><path d="M812-132.5 665.5-279v129.5h-22v-168h168v22H680L827.5-148 812-132.5Zm-332.482.5q-72.116 0-135.544-27.233-63.428-27.233-110.428-74.283-46.999-47.049-74.273-110.385Q132-407.236 132-478.89q0-73.746 27.273-136.807 27.273-63.061 74.348-110.256t110.512-74.621Q407.57-828 479.698-828q72.209 0 135.932 27.537 63.723 27.536 110.87 74.705 47.148 47.169 74.324 110.042Q828-552.842 828-479.219q0 14.969-1 30.469-1 15.5-3.291 31.25H799q4-15.167 5.5-30.833Q806-464 806-479.3q0-24.967-3.82-50.933Q798.36-556.2 790.357-581H614q5 25.5 7 50.792 2 25.291 2 50.583 0 14.958-.75 30.958-.75 16-.587 31.167H598q1.5-15.875 2.25-31.036.75-15.16.75-30.321 0-25.703-2.25-51.405T592.798-581H368.924q-4.424 25-7.174 50.5t-2.75 51q0 25.5 2.75 50.5t6.67 50H555.5v22h-182q15.86 56.426 40.18 109.713Q438-194 480.217-152q15.45 0 31.366-1.75Q527.5-155.5 543.5-158v20q-16 2.5-31.917 4.25-15.916 1.75-32.065 1.75ZM170.299-379H346q-4.478-25.5-6.717-50.333-2.239-24.834-2.239-49.667 0-25.583 1.989-51T346-581H170.574q-8.718 24.8-12.646 50.683Q154-504.433 154-478.55q0 24.55 3.57 49.717 3.57 25.166 12.729 49.833Zm6.201-224h173.118q13.507-56.829 37.444-109.664Q411-765.5 451-808q-92 11-164.25 65.75T176.5-603ZM450-152q-36.1-44.676-61.3-96.838Q363.5-301 350.429-357H176.5q37 84 109.75 139T450-152Zm-76.5-451h214q-14.5-56.5-41.078-108.68Q519.844-763.861 480-808q-40 43-66.25 95.75T373.5-603Zm237.828 0H784.5q-39-84-111.404-139.832Q600.692-798.665 510-808q36.1 44.676 59.595 97.107 23.496 52.43 41.733 107.893Z"/></svg>