<svg xmlns="http://www.w3.org/2000/svg" xmlns:xlink="http://www.w3.org/1999/xlink" width="514" zoomAndPan="magnify" viewBox="0 0 385.5 84.749999" height="113" preserveAspectRatio="xMidYMid meet" version="1.0"><defs><g/></defs><g fill="#a6584c" fill-opacity="1"><g transform="translate(62.369095, 53.660203)"><g><path d="M 26.207031 -32.234375 C 25.59375 -32.757812 24.851562 -33.109375 24.066406 -33.414062 C 22.101562 -34.242188 20.222656 -34.59375 18.125 -34.070312 C 16.117188 -33.546875 14.195312 -32.496094 12.667969 -31.097656 C 11.617188 -30.136719 9.785156 -28.523438 9.566406 -26.992188 L 9.871094 -27.429688 C 9.433594 -26.601562 9.128906 -25.769531 8.953125 -24.984375 C 8.910156 -24.984375 9.042969 -25.683594 9.085938 -25.683594 C 8.386719 -25.683594 8.605469 -23.019531 8.648438 -22.625 C 8.734375 -20.835938 9.214844 -19 9.914062 -17.339844 C 10.875 -15.070312 11.925781 -12.839844 12.796875 -10.570312 L 13.585938 -8.605469 C 13.671875 -8.300781 13.800781 -7.949219 13.933594 -7.644531 C 13.976562 -7.644531 14.152344 -7.292969 14.152344 -7.339844 C 14.195312 -6.988281 14.28125 -6.726562 14.371094 -6.421875 C 14.28125 -6.640625 14.109375 -6.945312 14.109375 -7.121094 C 14.019531 -6.8125 14.28125 -6.421875 14.371094 -6.203125 C 14.457031 -5.765625 14.5 -5.371094 14.5 -4.9375 C 14.414062 -3.800781 14.019531 -2.707031 13.453125 -1.746094 C 12.316406 0.132812 10.4375 1.660156 8.34375 2.316406 C 6.8125 2.75 4.9375 2.75 4.238281 1.09375 C 3.625 -0.261719 3.886719 -1.921875 4.191406 -3.320312 C 4.367188 -4.105469 4.585938 -4.890625 4.9375 -5.632812 C 5.199219 -6.332031 6.59375 -8.210938 6.203125 -8.910156 C 5.242188 -10.613281 2.007812 -6.332031 1.574219 -5.632812 C -0.261719 -2.664062 -1.136719 2.183594 2.621094 4.105469 C 5.242188 5.417969 8.691406 5.199219 11.3125 4.148438 C 12.230469 3.800781 16.203125 2.140625 16.160156 0.828125 L 15.289062 1.441406 C 18.300781 -1.179688 19.523438 -4.367188 18.34375 -8.300781 C 17.777344 -10.132812 16.730469 -11.617188 15.722656 -13.234375 C 14.980469 -14.546875 14.761719 -15.8125 14.152344 -17.164062 C 14.980469 -15.507812 15.988281 -13.890625 16.859375 -12.230469 C 15.070312 -16.335938 11.617188 -21.226562 13.933594 -25.8125 C 14.980469 -27.867188 16.859375 -29.570312 18.914062 -30.574219 C 20.09375 -31.144531 21.488281 -31.625 22.84375 -31.578125 C 24.460938 -31.449219 24.109375 -30.398438 24.109375 -29.308594 C 24.199219 -29.964844 24.589844 -30.664062 23.9375 -31.316406 C 23.324219 -31.839844 22.320312 -31.667969 21.578125 -31.535156 C 19.875 -31.230469 18.300781 -30.53125 16.949219 -29.527344 C 17.910156 -30.269531 19 -30.878906 20.136719 -31.273438 C 21.140625 -31.625 22.625 -32.058594 23.628906 -31.625 C 26.121094 -30.488281 22.929688 -25.726562 21.753906 -24.109375 C 21.96875 -24.503906 22.320312 -25.246094 22.40625 -25.332031 C 21.796875 -25.378906 20.574219 -22.320312 20.265625 -22.144531 C 19.21875 -21.054688 20.484375 -20.921875 21.359375 -21.445312 C 22.320312 -22.015625 23.105469 -22.929688 23.847656 -23.675781 C 24.851562 -24.722656 25.769531 -25.8125 26.554688 -26.992188 C 27.082031 -27.78125 28.042969 -29.046875 27.515625 -30.007812 C 27.167969 -30.835938 26.949219 -31.625 26.207031 -32.234375 Z M 1.789062 3.144531 C -0.480469 0.304688 0.566406 -3.449219 2.621094 -6.246094 C 0.828125 -3.667969 0.0859375 1.003906 1.789062 3.144531 Z M 13.058594 -22.277344 C 13.105469 -22.058594 13.058594 -21.839844 13.058594 -21.664062 Z M 13.058594 -22.277344 "/></g></g></g><g fill="#a6584c" fill-opacity="1"><g transform="translate(84.163386, 53.660203)"><g><path d="M 22.234375 -10.527344 C 22.1875 -11.488281 21.402344 -10.65625 21.140625 -10.308594 C 20.574219 -9.476562 20.046875 -8.605469 19.523438 -7.773438 C 18.34375 -5.984375 17.164062 -4.191406 15.8125 -2.488281 C 11.3125 3.058594 14.457031 -6.8125 14.109375 -6.726562 C 13.933594 -6.683594 13.800781 -6.027344 13.757812 -5.898438 C 14.109375 -7.46875 14.761719 -9.347656 15.59375 -10.875 C 16.074219 -11.835938 16.640625 -12.625 15.769531 -13.671875 C 14.152344 -15.636719 12.273438 -13.847656 11.226562 -12.492188 C 10.789062 -14.152344 9.914062 -16.597656 7.773438 -16.597656 C 6.8125 -16.597656 6.246094 -16.117188 5.589844 -15.550781 C 5.199219 -15.289062 4.890625 -15.242188 4.542969 -14.9375 C 3.976562 -14.546875 3.582031 -13.933594 3.1875 -13.410156 C 1.703125 -11.226562 0.65625 -8.472656 0.175781 -5.941406 C -0.0429688 -4.71875 -0.132812 -3.363281 0.21875 -2.140625 C 0.4375 -1.441406 1.222656 0.132812 2.226562 0 C 2.269531 0 2.183594 -0.0429688 2.054688 -0.132812 C 2.664062 0.0429688 3.363281 -0.0429688 3.886719 -0.394531 C 3.929688 -0.304688 3.40625 -0.0859375 3.40625 -0.0859375 C 3.886719 0.65625 7.46875 -3.667969 7.730469 -4.0625 C 8.300781 -4.847656 8.691406 -5.679688 9.214844 -6.507812 C 9.609375 -7.121094 10.222656 -7.90625 10.65625 -8.5625 C 10.613281 -8.253906 10.613281 -7.863281 10.613281 -7.863281 C 9.828125 -5.371094 9.085938 -2.664062 10.132812 -0.0859375 C 10.613281 1.222656 11.792969 2.445312 13.277344 2.183594 C 14.589844 1.964844 15.679688 0.699219 16.46875 -0.304688 C 17.429688 -1.441406 18.257812 -2.707031 19.085938 -4.019531 C 19.785156 -5.199219 20.441406 -6.378906 21.007812 -7.6875 C 21.359375 -8.515625 22.320312 -9.523438 22.234375 -10.527344 Z M 9.695312 -10.222656 C 9.476562 -9.914062 9.261719 -9.609375 9.085938 -9.304688 L 7.949219 -7.6875 C 7.207031 -6.59375 6.421875 -5.546875 5.589844 -4.542969 C 5.371094 -4.238281 4.324219 -2.882812 3.886719 -3.015625 C 3.230469 -3.230469 3.929688 -5.503906 4.019531 -5.851562 C 4.148438 -6.464844 6.464844 -13.191406 7.074219 -13.320312 C 6.289062 -13.367188 3.757812 -5.460938 3.625 -4.804688 C 3.976562 -6.945312 4.761719 -9.042969 5.632812 -11.007812 C 6.113281 -12.011719 7.207031 -14.675781 8.648438 -14.675781 C 9.433594 -14.675781 9.609375 -13.058594 9.742188 -12.535156 C 9.695312 -12.625 9.304688 -13.890625 9.261719 -13.847656 C 9.042969 -13.671875 9.914062 -11.269531 9.914062 -10.917969 C 9.914062 -10.570312 9.914062 -10.570312 9.695312 -10.222656 Z M 10.703125 -8.082031 C 10.703125 -8.082031 10.832031 -8.691406 10.875 -8.824219 L 11.09375 -9.128906 Z M 10.046875 -10.789062 L 10.046875 -11.226562 C 10.175781 -11.050781 10.175781 -10.917969 10.046875 -10.789062 Z M 10.046875 -10.789062 "/></g></g></g><g fill="#a6584c" fill-opacity="1"><g transform="translate(103.206085, 53.660203)"><g><path d="M 22.1875 -10.703125 L 22.1875 -10.746094 L 22.144531 -10.746094 C 21.621094 -11.488281 20.835938 -10.308594 20.3125 -9.914062 C 19.175781 -8.996094 17.996094 -8.253906 16.773438 -7.46875 C 16.816406 -7.6875 16.816406 -10.046875 16.683594 -9.957031 C 16.597656 -9.828125 16.597656 -9.695312 16.597656 -9.566406 C 16.511719 -10.964844 16.292969 -12.753906 14.589844 -13.277344 C 13.933594 -13.496094 13.320312 -13.320312 12.710938 -13.058594 C 11.007812 -12.273438 9.566406 -10.613281 8.34375 -9.304688 C 7.292969 -8.167969 6.332031 -6.945312 5.460938 -5.679688 C 5.941406 -6.289062 6.464844 -6.859375 6.902344 -7.339844 C 5.941406 -6.113281 5.023438 -4.804688 4.324219 -3.40625 L 4.5 -4.105469 L 4.410156 -3.886719 C 4.761719 -6.246094 5.199219 -8.605469 5.722656 -10.917969 C 5.941406 -12.011719 6.070312 -13.628906 6.640625 -14.589844 C 7.074219 -15.375 8.429688 -15.460938 8.910156 -16.25 C 8.910156 -16.25 8.78125 -16.160156 8.605469 -16.074219 C 9.214844 -16.554688 9.785156 -17.078125 10.351562 -17.558594 C 10.351562 -17.515625 9.914062 -17.078125 9.914062 -17.078125 C 10.222656 -16.859375 12.667969 -19.4375 12.886719 -19.699219 C 13.933594 -20.792969 14.9375 -21.96875 15.722656 -23.324219 C 16.421875 -24.546875 17.210938 -25.726562 17.863281 -26.949219 C 18.300781 -27.648438 18.652344 -28.347656 19 -29.089844 C 19.21875 -29.613281 19.832031 -30.707031 19.699219 -31.316406 C 19.65625 -31.359375 19.613281 -31.359375 19.566406 -31.316406 L 19.832031 -32.367188 C 19.832031 -32.367188 19.742188 -31.535156 19.699219 -31.492188 C 19.917969 -31.667969 19.875 -32.585938 19.875 -32.585938 C 20.398438 -35.074219 20.398438 -40.054688 16.859375 -40.226562 C 15.027344 -40.273438 13.539062 -38.613281 12.492188 -37.34375 C 11.269531 -35.816406 10.222656 -34.113281 9.304688 -32.367188 C 7.601562 -29.351562 6.289062 -26.121094 4.980469 -22.929688 C 3.496094 -19.261719 2.183594 -15.460938 1.308594 -11.617188 C 0.742188 -9.347656 0.304688 -7.074219 0.132812 -4.761719 C 0.0859375 -4.191406 -0.304688 -1.09375 0.480469 -0.785156 C 0.480469 -0.742188 0.480469 -0.917969 0.4375 -1.179688 C 0.480469 -0.960938 0.566406 -0.828125 0.65625 -0.65625 C 0.613281 -0.65625 0.875 0 0.875 0 C 1.09375 0.394531 1.398438 0.785156 1.789062 1.046875 C 2.535156 1.574219 3.539062 1.835938 4.0625 0.960938 C 4.5 0.261719 4.671875 -0.917969 5.066406 -1.703125 C 5.199219 -2.054688 5.371094 -2.402344 5.546875 -2.75 C 5.503906 -2.96875 5.546875 -3.144531 5.722656 -3.277344 C 5.808594 -3.230469 5.898438 -3.277344 6.027344 -3.363281 C 6.683594 -4.105469 7.074219 -5.109375 7.601562 -5.984375 C 7.820312 -6.332031 10.65625 -10.089844 11.007812 -10.265625 C 10.964844 -10.265625 10.917969 -10.265625 10.875 -10.222656 C 11.136719 -10.484375 11.355469 -10.65625 11.664062 -10.875 C 11.707031 -10.789062 11.445312 -10.65625 11.488281 -10.613281 C 11.488281 -10.613281 13.058594 -11.183594 13.234375 -11.183594 C 13.800781 -11.050781 13.714844 -10.132812 13.671875 -9.695312 C 13.585938 -9.042969 13.277344 -8.429688 12.972656 -7.863281 C 12.796875 -7.511719 12.492188 -7.121094 12.40625 -6.769531 C 12.40625 -6.726562 12.144531 -6.027344 12.40625 -6.332031 L 12.273438 -6.113281 C 12.144531 -5.898438 11.3125 -4.804688 11.136719 -4.671875 C 10.394531 -3.976562 9.828125 -3.144531 9.128906 -2.445312 C 8.253906 -1.574219 6.289062 -1.179688 7.601562 0.4375 C 9.957031 3.320312 13.585938 -1.222656 14.851562 -3.058594 C 15.550781 -4.105469 16.421875 -5.023438 17.164062 -5.898438 C 17.429688 -6.203125 17.910156 -6.59375 18.257812 -6.8125 C 18.390625 -6.902344 18.605469 -6.902344 18.738281 -7.03125 C 19.085938 -7.382812 19.132812 -7.554688 19.4375 -7.863281 C 20.003906 -8.429688 20.964844 -8.605469 21.488281 -9.261719 C 21.578125 -9.390625 21.578125 -9.476562 21.445312 -9.609375 C 21.488281 -9.695312 21.578125 -9.695312 21.664062 -9.652344 L 21.925781 -9.785156 C 22.144531 -10.089844 22.449219 -10.265625 22.1875 -10.703125 Z M 17.296875 -38.261719 C 18.695312 -38.261719 18.519531 -34.59375 18.476562 -33.808594 C 18.390625 -32.539062 18.082031 -31.273438 17.644531 -30.09375 C 17.339844 -29.175781 16.992188 -27.78125 16.421875 -27.035156 C 15.289062 -25.550781 14.019531 -23.847656 12.796875 -22.320312 C 11.226562 -20.355469 9.347656 -18.695312 7.382812 -17.121094 C 8.167969 -19.742188 9.085938 -22.363281 10.089844 -24.941406 C 10.351562 -25.550781 12.886719 -32.191406 13.234375 -32.496094 C 13.148438 -32.453125 13.058594 -32.367188 12.972656 -32.234375 C 13.714844 -33.851562 14.5 -35.46875 15.636719 -36.910156 L 15.070312 -35.859375 C 15.507812 -36.382812 17.210938 -38.304688 17.296875 -38.175781 C 17.253906 -38.261719 16.949219 -38.175781 16.816406 -38.085938 C 16.949219 -38.21875 17.121094 -38.261719 17.296875 -38.261719 Z M 8.691406 -30.269531 C 9.695312 -32.191406 10.746094 -33.980469 12.097656 -35.730469 C 12.972656 -36.910156 14.238281 -38.304688 15.8125 -38.832031 C 14.28125 -38.304688 13.234375 -36.953125 12.316406 -35.683594 C 11.050781 -33.9375 10.003906 -32.105469 8.910156 -30.226562 C 7.25 -27.386719 5.941406 -24.371094 4.804688 -21.359375 C 5.898438 -24.371094 7.164062 -27.386719 8.691406 -30.269531 Z M 11.574219 -4.28125 C 10.832031 -3.277344 9.742188 -2.007812 8.648438 -1.398438 C 9.214844 -1.746094 9.652344 -2.402344 10.222656 -3.058594 C 11.007812 -4.0625 11.75 -5.066406 12.492188 -6.113281 C 12.839844 -6.59375 13.847656 -8.386719 14.152344 -9.785156 C 13.847656 -7.820312 12.625 -5.898438 11.574219 -4.28125 Z M 7.164062 -16.949219 L 7.164062 -17.035156 L 7.207031 -17.121094 C 7.207031 -17.164062 7.25 -17.210938 7.25 -17.296875 C 7.25 -17.339844 7.25 -17.382812 7.292969 -17.429688 L 7.292969 -17.472656 L 7.863281 -19.261719 L 7.644531 -18.476562 C 7.554688 -18.125 7.425781 -17.164062 7.164062 -16.949219 Z M 9.128906 -22.84375 C 9.828125 -24.679688 10.527344 -26.511719 11.269531 -28.304688 Z M 4.542969 -4.148438 L 5.460938 -5.679688 C 5.109375 -5.199219 4.761719 -4.671875 4.542969 -4.148438 Z M 7.164062 -16.949219 L 7.164062 -17.035156 L 7.207031 -17.078125 C 7.207031 -17.035156 7.164062 -16.992188 7.164062 -16.949219 Z M 8.167969 -8.910156 C 8.167969 -8.867188 8.125 -8.867188 8.125 -8.867188 Z M 8.167969 -8.910156 "/></g></g></g><g fill="#a6584c" fill-opacity="1"><g transform="translate(122.292463, 53.660203)"><g><path d="M 11.445312 -10.746094 C 11.355469 -11.3125 10.746094 -11.136719 10.4375 -10.917969 C 10.046875 -10.65625 7.863281 -7.773438 8.035156 -7.554688 C 8.167969 -7.554688 8.253906 -7.554688 8.34375 -7.644531 C 7.730469 -6.902344 6.59375 -6.070312 5.765625 -5.417969 C 5.285156 -5.023438 4.105469 -3.929688 3.40625 -4.28125 C 1.921875 -5.023438 4.9375 -10.265625 4.804688 -10.308594 C 4.671875 -10.351562 3.582031 -7.90625 3.363281 -7.339844 C 3.886719 -8.867188 4.585938 -10.394531 5.417969 -11.75 C 5.371094 -11.617188 5.242188 -11.398438 5.328125 -11.398438 C 5.417969 -11.355469 6.070312 -12.273438 5.941406 -12.359375 C 5.898438 -12.359375 5.808594 -12.359375 5.765625 -12.316406 C 5.898438 -12.449219 6.113281 -12.492188 6.113281 -12.753906 C 6.113281 -13.191406 5.109375 -13.628906 4.761719 -13.757812 C 3.929688 -14.109375 3.101562 -14.195312 2.445312 -13.757812 C 1.574219 -13.234375 1.398438 -12.1875 1.046875 -11.269531 C 0.960938 -11.007812 0.132812 -7.90625 0.304688 -7.863281 C 0.394531 -7.90625 0.394531 -7.949219 0.4375 -8.035156 L 0.304688 -7.25 C 0.261719 -7.25 0.347656 -7.46875 0.261719 -7.46875 C -0.0859375 -7.46875 0 -5.898438 0.0429688 -5.679688 C 0.21875 -4.890625 0.828125 -4.324219 1.308594 -3.667969 C 1.574219 -3.277344 1.835938 -2.882812 2.226562 -2.621094 C 2.75 -2.226562 2.402344 -2.621094 2.75 -2.445312 L 2.664062 -2.445312 C 2.621094 -2.183594 4.28125 -1.746094 4.628906 -1.789062 C 6.160156 -2.140625 7.25 -4.019531 8.125 -5.199219 C 8.953125 -6.246094 9.652344 -7.292969 10.394531 -8.386719 C 10.832031 -8.953125 11.617188 -9.914062 11.445312 -10.746094 Z M 3.800781 -16.25 C 3.886719 -16.117188 3.757812 -15.941406 4.0625 -15.769531 C 4.367188 -15.636719 4.542969 -15.8125 4.804688 -15.898438 C 5.328125 -16.117188 5.722656 -16.683594 6.113281 -17.035156 C 6.246094 -17.121094 5.984375 -17.078125 5.984375 -17.078125 C 6.550781 -17.601562 6.070312 -16.992188 6.59375 -17.296875 C 7.121094 -17.644531 7.207031 -18.214844 7.644531 -18.695312 C 7.121094 -18.476562 6.726562 -18.171875 6.378906 -17.734375 C 5.941406 -17.164062 5.632812 -16.902344 5.152344 -16.597656 C 5.679688 -16.992188 5.941406 -17.382812 6.378906 -18.082031 C 6.507812 -18.214844 6.640625 -18.300781 6.8125 -18.390625 C 6.683594 -18.519531 6.683594 -18.652344 6.859375 -18.78125 C 6.988281 -19 7.25 -19.085938 7.382812 -19.304688 C 7.601562 -19.613281 7.554688 -20.003906 7.820312 -20.3125 C 8.035156 -20.484375 8.34375 -20.617188 8.515625 -20.792969 C 8.910156 -21.140625 9.347656 -21.796875 9.171875 -22.363281 C 8.996094 -22.886719 8.5625 -23.542969 8.082031 -23.847656 C 7.511719 -24.152344 6.726562 -24.285156 6.113281 -24.023438 C 5.984375 -23.980469 5.460938 -23.847656 5.632812 -23.675781 C 5.679688 -23.585938 5.722656 -23.585938 5.808594 -23.585938 C 5.417969 -23.28125 4.761719 -22.757812 5.679688 -22.40625 C 5.589844 -22.320312 5.679688 -21.925781 5.679688 -21.882812 C 5.632812 -21.578125 5.023438 -19.960938 4.628906 -19.175781 L 5.152344 -19.960938 C 4.847656 -19.304688 4.5 -18.695312 4.105469 -18.171875 C 4.367188 -18.738281 3.84375 -18.082031 3.84375 -17.953125 C 3.363281 -18.171875 3.496094 -16.816406 3.539062 -16.683594 C 3.539062 -16.640625 3.800781 -16.25 3.800781 -16.25 Z M 2.96875 -5.851562 L 2.96875 -5.808594 L 2.882812 -5.546875 L 2.96875 -5.898438 C 3.015625 -5.941406 3.015625 -5.941406 2.96875 -5.851562 Z M 4.410156 -18.824219 C 4.410156 -18.824219 4.5 -18.914062 4.585938 -19.085938 Z M 3.976562 -17.996094 C 3.976562 -17.953125 3.976562 -17.953125 3.929688 -17.910156 C 3.929688 -17.910156 3.929688 -17.953125 3.886719 -17.953125 C 3.929688 -17.953125 3.929688 -17.953125 3.976562 -17.996094 Z M 3.976562 -17.996094 "/></g></g></g><g fill="#a6584c" fill-opacity="1"><g transform="translate(130.547215, 53.660203)"><g><path d="M 18.082031 -10.394531 C 17.863281 -11.445312 17.253906 -10.746094 16.992188 -10.351562 C 16.378906 -9.609375 15.417969 -8.910156 14.675781 -8.210938 C 13.671875 -7.339844 12.667969 -6.421875 11.617188 -5.589844 C 11.09375 -5.152344 10.4375 -4.542969 9.785156 -4.324219 C 9.695312 -4.28125 9.390625 -4.238281 9.390625 -4.191406 L 9.347656 -4.238281 C 9.347656 -4.238281 9.304688 -4.9375 9.347656 -4.980469 C 9.390625 -5.546875 9.566406 -6.113281 9.742188 -6.640625 C 9.785156 -6.726562 10.265625 -8.210938 10.175781 -8.210938 L 9.957031 -7.949219 C 10.222656 -8.472656 10.570312 -8.996094 10.875 -9.566406 C 10.175781 -8.910156 9.695312 -8.167969 9.347656 -7.25 C 9.171875 -6.8125 8.691406 -6.027344 8.605469 -5.371094 C 8.691406 -6.332031 9.347656 -7.601562 9.652344 -8.167969 C 10.089844 -9.085938 10.570312 -10.132812 11.136719 -11.007812 C 12.1875 -12.578125 14.457031 -14.019531 13.757812 -16.203125 C 13.148438 -18.257812 11.53125 -18.300781 10.265625 -17.121094 C 9.652344 -16.554688 4.457031 -9.914062 4.585938 -9.828125 C 4.585938 -9.828125 5.023438 -10.351562 5.589844 -11.09375 L 3.015625 -7.339844 C 2.96875 -7.339844 3.449219 -8.082031 3.40625 -8.125 C 3.363281 -8.167969 3.058594 -7.863281 3.015625 -7.6875 C 3.101562 -8.605469 3.40625 -9.523438 3.496094 -10.4375 C 3.539062 -10.789062 3.496094 -11.050781 3.582031 -11.398438 C 3.757812 -11.96875 3.929688 -12.578125 4.191406 -13.058594 C 4.367188 -13.410156 4.71875 -13.714844 4.804688 -14.066406 C 4.980469 -14.632812 4.9375 -14.851562 5.328125 -15.332031 C 5.679688 -15.769531 6.203125 -16.203125 6.507812 -16.597656 C 7.25 -17.691406 5.984375 -18.433594 5.285156 -18.5625 C 4.71875 -18.652344 4.148438 -18.695312 3.625 -18.390625 C 3.058594 -18.039062 3.1875 -17.734375 3.058594 -17.253906 C 2.925781 -16.640625 2.488281 -15.941406 2.269531 -15.375 C 1.921875 -14.457031 1.617188 -13.539062 1.308594 -12.625 C 0.960938 -11.707031 0.613281 -10.832031 0.347656 -9.914062 C 0.132812 -9.171875 0.175781 -8.472656 0.0859375 -7.773438 C 0 -6.988281 -0.132812 -6.464844 0.261719 -5.765625 C 0.699219 -5.023438 1.878906 -3.886719 2.664062 -4.847656 L 2.839844 -4.5 C 3.582031 -6.113281 4.71875 -7.554688 5.632812 -9.128906 C 6.027344 -9.828125 6.726562 -10.308594 7.292969 -11.050781 C 8.082031 -12.097656 8.78125 -13.148438 9.652344 -14.152344 C 9.523438 -13.933594 8.953125 -12.929688 8.996094 -12.886719 C 9.085938 -12.929688 9.128906 -13.015625 9.214844 -13.105469 L 8.605469 -11.878906 C 8.5625 -11.925781 8.78125 -12.230469 8.691406 -12.230469 C 8.386719 -12.316406 7.46875 -9.871094 7.382812 -9.652344 C 7.074219 -8.691406 7.03125 -7.820312 6.945312 -6.8125 C 6.902344 -6.332031 6.8125 -5.851562 6.8125 -5.371094 C 6.8125 -4.890625 6.859375 -4.410156 7.074219 -3.929688 C 7.207031 -3.667969 7.382812 -3.320312 7.601562 -3.101562 C 7.644531 -3.101562 8.125 -2.664062 7.90625 -3.015625 L 8.167969 -2.75 L 8.035156 -2.839844 C 7.992188 -2.621094 9.609375 -1.746094 9.871094 -1.660156 C 11.09375 -1.265625 12.40625 -2.664062 13.191406 -3.496094 C 14.238281 -4.628906 15.113281 -5.941406 16.074219 -7.164062 C 16.597656 -7.863281 18.257812 -9.347656 18.082031 -10.394531 Z M 18.082031 -10.394531 "/></g></g></g><g fill="#a6584c" fill-opacity="1"><g transform="translate(145.440704, 53.660203)"><g><path d="M 22.234375 -10.527344 C 22.1875 -11.488281 21.402344 -10.65625 21.140625 -10.308594 C 20.574219 -9.476562 20.046875 -8.605469 19.523438 -7.773438 C 18.34375 -5.984375 17.164062 -4.191406 15.8125 -2.488281 C 11.3125 3.058594 14.457031 -6.8125 14.109375 -6.726562 C 13.933594 -6.683594 13.800781 -6.027344 13.757812 -5.898438 C 14.109375 -7.46875 14.761719 -9.347656 15.59375 -10.875 C 16.074219 -11.835938 16.640625 -12.625 15.769531 -13.671875 C 14.152344 -15.636719 12.273438 -13.847656 11.226562 -12.492188 C 10.789062 -14.152344 9.914062 -16.597656 7.773438 -16.597656 C 6.8125 -16.597656 6.246094 -16.117188 5.589844 -15.550781 C 5.199219 -15.289062 4.890625 -15.242188 4.542969 -14.9375 C 3.976562 -14.546875 3.582031 -13.933594 3.1875 -13.410156 C 1.703125 -11.226562 0.65625 -8.472656 0.175781 -5.941406 C -0.0429688 -4.71875 -0.132812 -3.363281 0.21875 -2.140625 C 0.4375 -1.441406 1.222656 0.132812 2.226562 0 C 2.269531 0 2.183594 -0.0429688 2.054688 -0.132812 C 2.664062 0.0429688 3.363281 -0.0429688 3.886719 -0.394531 C 3.929688 -0.304688 3.40625 -0.0859375 3.40625 -0.0859375 C 3.886719 0.65625 7.46875 -3.667969 7.730469 -4.0625 C 8.300781 -4.847656 8.691406 -5.679688 9.214844 -6.507812 C 9.609375 -7.121094 10.222656 -7.90625 10.65625 -8.5625 C 10.613281 -8.253906 10.613281 -7.863281 10.613281 -7.863281 C 9.828125 -5.371094 9.085938 -2.664062 10.132812 -0.0859375 C 10.613281 1.222656 11.792969 2.445312 13.277344 2.183594 C 14.589844 1.964844 15.679688 0.699219 16.46875 -0.304688 C 17.429688 -1.441406 18.257812 -2.707031 19.085938 -4.019531 C 19.785156 -5.199219 20.441406 -6.378906 21.007812 -7.6875 C 21.359375 -8.515625 22.320312 -9.523438 22.234375 -10.527344 Z M 9.695312 -10.222656 C 9.476562 -9.914062 9.261719 -9.609375 9.085938 -9.304688 L 7.949219 -7.6875 C 7.207031 -6.59375 6.421875 -5.546875 5.589844 -4.542969 C 5.371094 -4.238281 4.324219 -2.882812 3.886719 -3.015625 C 3.230469 -3.230469 3.929688 -5.503906 4.019531 -5.851562 C 4.148438 -6.464844 6.464844 -13.191406 7.074219 -13.320312 C 6.289062 -13.367188 3.757812 -5.460938 3.625 -4.804688 C 3.976562 -6.945312 4.761719 -9.042969 5.632812 -11.007812 C 6.113281 -12.011719 7.207031 -14.675781 8.648438 -14.675781 C 9.433594 -14.675781 9.609375 -13.058594 9.742188 -12.535156 C 9.695312 -12.625 9.304688 -13.890625 9.261719 -13.847656 C 9.042969 -13.671875 9.914062 -11.269531 9.914062 -10.917969 C 9.914062 -10.570312 9.914062 -10.570312 9.695312 -10.222656 Z M 10.703125 -8.082031 C 10.703125 -8.082031 10.832031 -8.691406 10.875 -8.824219 L 11.09375 -9.128906 Z M 10.046875 -10.789062 L 10.046875 -11.226562 C 10.175781 -11.050781 10.175781 -10.917969 10.046875 -10.789062 Z M 10.046875 -10.789062 "/></g></g></g><g fill="#a6584c" fill-opacity="1"><g transform="translate(164.483403, 53.660203)"><g/></g></g><g fill="#a6584c" fill-opacity="1"><g transform="translate(176.712659, 53.660203)"><g><path d="M 28.128906 -30.398438 L 28.128906 -30.445312 C 28.085938 -30.664062 27.953125 -30.707031 27.734375 -30.75 C 27.5625 -30.792969 27.648438 -30.53125 27.472656 -30.53125 C 27.300781 -30.488281 26.820312 -30.574219 26.644531 -30.574219 C 25.550781 -30.664062 24.460938 -30.617188 23.367188 -30.53125 C 23.105469 -30.53125 22.667969 -30.445312 22.449219 -30.488281 C 21.96875 -30.574219 21.96875 -30.75 21.621094 -31.054688 C 21.097656 -31.535156 20.222656 -31.972656 19.480469 -31.886719 C 19.132812 -31.839844 18.914062 -31.796875 18.695312 -31.535156 C 18.5625 -31.359375 18.695312 -31.230469 18.695312 -31.230469 C 18.605469 -31.011719 18.433594 -30.707031 18.257812 -30.53125 C 17.910156 -30.09375 17.953125 -30.09375 17.339844 -29.917969 C 16.730469 -29.746094 16.292969 -29.613281 15.679688 -29.570312 C 14.851562 -29.527344 14.066406 -29.308594 13.234375 -29.132812 C 12.667969 -29.046875 11.878906 -29.046875 11.355469 -28.785156 C 11.050781 -28.652344 10.917969 -28.566406 10.789062 -28.261719 C 10.265625 -26.949219 12.054688 -26.382812 13.015625 -26.425781 C 13.714844 -26.46875 14.808594 -26.554688 15.417969 -26.820312 C 15.855469 -26.992188 16.117188 -27.167969 16.554688 -27.253906 C 15.375 -24.808594 14.328125 -22.320312 13.191406 -19.832031 C 12.097656 -17.382812 10.875 -14.9375 9.957031 -12.40625 C 9.566406 -11.3125 9.304688 -10.175781 8.824219 -9.085938 C 8.300781 -7.992188 7.820312 -6.902344 7.425781 -5.765625 C 6.769531 -3.929688 5.679688 -1.835938 6.550781 0.0859375 C 5.199219 0.523438 3.757812 0.613281 2.316406 0.875 C 1.789062 1.003906 1.046875 0.960938 0.566406 1.222656 C -0.347656 1.703125 -0.0429688 2.796875 0.742188 3.277344 C 1.789062 3.886719 3.710938 3.496094 4.804688 3.144531 C 5.199219 3.015625 5.503906 2.796875 5.941406 2.707031 C 6.640625 2.621094 7.339844 2.445312 8.035156 2.359375 C 9.304688 2.183594 10.265625 1.878906 11.488281 1.617188 L 13.757812 1.136719 C 14.109375 1.046875 14.371094 0.828125 14.589844 0.699219 C 14.808594 0.613281 15.027344 0.613281 15.375 0.566406 C 15.855469 0.566406 17.382812 0.394531 17.382812 -0.304688 C 17.382812 -0.566406 17.253906 -0.699219 17.035156 -0.742188 C 16.859375 -0.785156 16.902344 -0.523438 16.730469 -0.523438 C 16.511719 -0.480469 16.117188 -0.566406 15.898438 -0.566406 C 13.847656 -0.699219 11.75 -0.523438 9.695312 -0.304688 C 10.308594 -2.402344 11.007812 -4.5 11.835938 -6.507812 C 12.359375 -7.863281 12.625 -9.214844 13.191406 -10.527344 C 13.890625 -12.230469 14.589844 -13.933594 15.417969 -15.59375 C 16.160156 -17.078125 16.554688 -18.605469 17.296875 -20.046875 C 18.082031 -21.664062 18.824219 -23.238281 19.65625 -24.808594 C 20.09375 -25.683594 20.746094 -26.6875 21.007812 -27.648438 C 21.054688 -27.910156 20.746094 -27.996094 21.054688 -28.261719 C 21.183594 -28.347656 21.753906 -28.304688 21.925781 -28.347656 C 22.714844 -28.476562 23.5 -28.652344 24.285156 -28.828125 C 25.113281 -29.003906 25.289062 -29.351562 25.988281 -29.394531 C 26.46875 -29.4375 28.261719 -29.570312 28.128906 -30.398438 Z M 17.035156 -22.1875 C 16.859375 -21.839844 16.683594 -21.535156 16.554688 -21.183594 C 16.683594 -21.753906 16.640625 -22.320312 16.859375 -22.886719 C 17.035156 -23.367188 17.601562 -23.847656 17.910156 -24.328125 C 17.644531 -23.585938 17.429688 -22.886719 17.035156 -22.1875 Z M 15.242188 -19.742188 L 14.632812 -18.78125 C 14.851562 -19.304688 14.980469 -19.832031 15.242188 -20.355469 C 15.332031 -20.527344 15.507812 -20.746094 15.679688 -20.964844 C 15.507812 -20.574219 15.460938 -20.136719 15.242188 -19.742188 Z M 15.242188 -19.742188 "/></g></g></g><g fill="#a6584c" fill-opacity="1"><g transform="translate(196.279473, 53.660203)"><g><path d="M 6.8125 -0.4375 C 6.8125 -0.742188 7.074219 -1.136719 6.8125 -1.484375 C 6.59375 -1.746094 6.59375 -1.574219 6.378906 -1.617188 C 5.503906 -1.964844 4.671875 -1.746094 3.886719 -1.355469 C 2.882812 -0.828125 1.265625 0.960938 1.878906 2.269531 C 2.054688 2.621094 2.839844 3.320312 3.144531 3.449219 C 3.976562 3.886719 4.410156 3.320312 4.9375 2.839844 C 5.546875 2.269531 5.984375 2.054688 6.289062 1.355469 C 6.378906 1.179688 7.425781 -0.4375 6.8125 -0.4375 Z M 6.8125 -0.4375 "/></g></g></g><g fill="#a6584c" fill-opacity="1"><g transform="translate(205.844496, 53.660203)"><g/></g></g><g fill="#a6584c" fill-opacity="1"><g transform="translate(218.073752, 53.660203)"><g><path d="M 4.105469 -3.496094 L 4.0625 -3.449219 C 4.105469 -3.496094 4.105469 -3.496094 4.105469 -3.539062 L 4.105469 -3.757812 C 4.585938 -6.332031 5.503906 -8.867188 6.421875 -11.355469 C 7.382812 -13.976562 8.300781 -16.554688 9.523438 -19.042969 C 10.65625 -21.402344 11.96875 -23.71875 13.453125 -25.859375 C 14.761719 -27.824219 16.335938 -29.964844 18.34375 -31.273438 C 18.957031 -31.449219 19.566406 -32.105469 20.355469 -31.972656 C 21.140625 -31.839844 21.140625 -31.011719 20.964844 -30.226562 C 21.183594 -30.835938 21.316406 -31.492188 20.792969 -31.929688 C 20.09375 -32.453125 18.738281 -31.625 18.171875 -31.230469 C 17.910156 -31.144531 17.644531 -30.96875 17.429688 -30.792969 C 17.558594 -30.925781 17.734375 -31.054688 17.953125 -31.1875 L 17.734375 -31.097656 L 18.34375 -31.449219 C 19.042969 -31.839844 20.617188 -32.714844 21.140625 -31.578125 C 21.535156 -30.664062 20.921875 -29.132812 20.617188 -28.261719 C 20.046875 -26.773438 19.351562 -25.378906 18.605469 -23.980469 C 18.738281 -24.285156 19.261719 -25.464844 19.261719 -25.464844 C 18.957031 -25.507812 17.558594 -22.277344 17.296875 -22.1875 L 17.339844 -22.1875 C 17.164062 -22.058594 17.035156 -21.925781 17.035156 -21.882812 C 16.949219 -21.359375 17.558594 -21.488281 17.910156 -21.535156 C 19.394531 -21.707031 21.316406 -22.976562 22.277344 -24.066406 C 23.324219 -25.246094 23.71875 -27.035156 23.71875 -28.609375 L 23.71875 -28.652344 C 23.675781 -31.625 21.621094 -35.378906 18.082031 -35.160156 C 16.117188 -35.074219 14.28125 -33.152344 13.015625 -31.839844 C 12.097656 -30.792969 11.226562 -29.65625 10.4375 -28.523438 C 10.089844 -27.996094 9.742188 -27.515625 9.433594 -26.992188 C 9.085938 -26.511719 8.386719 -25.769531 8.210938 -25.203125 C 8.210938 -25.203125 8.429688 -25.464844 8.605469 -25.640625 C 8.125 -24.898438 7.6875 -24.109375 7.25 -23.367188 C 7.207031 -23.410156 7.511719 -24.023438 7.511719 -24.023438 C 7.121094 -24.109375 5.328125 -20.527344 5.109375 -20.136719 C 4.324219 -18.695312 3.625 -17.253906 3.144531 -15.722656 C 2.621094 -14.019531 1.921875 -12.40625 1.398438 -10.746094 C 1.136719 -9.914062 0.875 -9.128906 0.699219 -8.300781 C 0.613281 -7.90625 0.523438 -7.554688 0.480469 -7.164062 C 0.480469 -7.121094 0.394531 -6.421875 0.480469 -6.507812 C 0.394531 -6.203125 0.394531 -5.808594 0.347656 -5.503906 C 0.347656 -5.503906 0.347656 -6.246094 0.394531 -6.332031 C 0.21875 -6.113281 0.347656 -5.285156 0.304688 -5.199219 C 0.0859375 -3.539062 -0.261719 -1.789062 0.304688 -0.175781 C 1.046875 2.054688 2.882812 3.886719 4.890625 5.066406 C 5.941406 5.722656 7.339844 6.464844 8.648438 6.378906 C 10.175781 6.289062 11.664062 5.023438 12.796875 4.105469 C 16.117188 1.308594 19.132812 -2.621094 19.699219 -7.074219 C 19.742188 -7.382812 19.960938 -8.910156 19.4375 -8.953125 C 18.957031 -8.996094 18.605469 -7.949219 18.433594 -7.6875 C 17.121094 -5.546875 15.59375 -3.539062 13.890625 -1.703125 C 12.144531 0.21875 9.957031 2.269531 7.292969 2.882812 C 6.945312 2.96875 6.550781 3.015625 6.160156 3.015625 C 5.632812 2.96875 5.152344 2.839844 4.761719 2.445312 C 4.542969 2.226562 4.324219 1.484375 4.0625 1.355469 C 4.0625 1.136719 4.019531 0.917969 3.976562 0.785156 L 3.84375 0.523438 C 3.800781 -0.785156 3.84375 -2.007812 4.0625 -3.363281 L 4.0625 -3.40625 C 4.0625 -3.449219 4.105469 -3.449219 4.105469 -3.496094 Z M 11.792969 -24.851562 C 10.089844 -22.058594 8.648438 -19.175781 7.207031 -16.203125 C 6.378906 -14.457031 5.546875 -12.667969 4.890625 -10.789062 C 5.808594 -13.714844 6.902344 -16.511719 8.210938 -19.304688 C 9.785156 -22.667969 11.878906 -25.945312 14.371094 -28.652344 C 13.367188 -27.429688 12.492188 -26.03125 11.792969 -24.851562 Z M 16.292969 -29.65625 C 15.679688 -29.046875 15.113281 -28.347656 14.589844 -27.691406 C 15.417969 -28.785156 16.292969 -29.875 17.382812 -30.75 C 16.992188 -30.398438 16.597656 -29.964844 16.292969 -29.65625 Z M 20.746094 -29.308594 C 20.835938 -29.570312 20.921875 -29.875 20.964844 -30.226562 C 20.878906 -29.832031 20.703125 -29.4375 20.703125 -29.132812 C 20.746094 -29.222656 20.746094 -29.265625 20.746094 -29.308594 Z M 20.746094 -29.308594 "/></g></g></g><g fill="#a6584c" fill-opacity="1"><g transform="translate(239.868043, 53.660203)"><g><path d="M 17.910156 -10.613281 C 17.644531 -11.75 16.597656 -10.222656 16.378906 -9.957031 L 13.976562 -6.726562 L 11.617188 -3.625 L 10.351562 -2.007812 C 10.222656 -1.835938 9.261719 -0.613281 9.347656 -0.613281 C 9.433594 -0.699219 9.566406 -0.699219 9.695312 -0.828125 C 9.042969 -0.132812 6.640625 2.054688 6.203125 1.527344 C 5.851562 1.09375 6.8125 -0.742188 6.945312 -1.179688 C 7.425781 -2.445312 7.863281 -3.757812 8.386719 -4.980469 C 8.953125 -6.246094 9.609375 -7.511719 10.132812 -8.78125 C 10.65625 -10.132812 9.871094 -10.613281 8.605469 -10.917969 C 8.035156 -11.050781 7.339844 -11.050781 6.683594 -11.136719 C 6.683594 -11.09375 6.726562 -11.09375 6.726562 -11.09375 C 7.292969 -11.007812 8.125 -10.964844 8.824219 -10.746094 C 7.773438 -11.050781 6.464844 -10.917969 5.632812 -11.136719 C 5.066406 -11.269531 4.71875 -11.269531 4.804688 -11.925781 C 4.890625 -12.796875 5.808594 -13.714844 6.113281 -14.546875 C 6.113281 -14.5 5.808594 -13.714844 5.851562 -13.714844 C 6.070312 -13.628906 6.421875 -14.851562 6.421875 -15.027344 C 6.378906 -15.242188 5.851562 -15.898438 5.808594 -15.636719 L 5.898438 -15.507812 C 3.800781 -16.949219 1.308594 -13.976562 1.746094 -11.835938 C 1.835938 -11.53125 2.007812 -11.355469 2.140625 -11.007812 C 2.226562 -10.746094 2.140625 -10.4375 2.402344 -10.089844 C 3.320312 -8.953125 4.980469 -8.910156 6.289062 -9.171875 C 6.070312 -8.867188 3.757812 -3.976562 3.886719 -3.929688 L 3.582031 -2.839844 C 3.539062 -2.882812 3.710938 -3.230469 3.625 -3.230469 C 3.320312 -3.277344 2.707031 -0.742188 2.664062 -0.523438 C 2.488281 0.523438 2.535156 1.441406 2.96875 2.402344 C 3.230469 3.015625 3.539062 3.539062 4.105469 3.886719 C 4.628906 4.238281 5.285156 4.410156 5.898438 4.28125 C 6.113281 4.191406 6.945312 3.625 6.726562 3.667969 L 7.03125 3.539062 C 6.988281 3.582031 6.945312 3.625 6.945312 3.667969 C 7.074219 3.710938 9.085938 2.097656 9.347656 1.921875 C 10.746094 0.742188 11.878906 -0.699219 12.929688 -2.140625 C 13.976562 -3.625 15.070312 -5.109375 16.074219 -6.59375 C 16.554688 -7.292969 16.992188 -7.992188 17.339844 -8.734375 C 17.601562 -9.261719 18.039062 -10.003906 17.910156 -10.613281 Z M 4.847656 -5.371094 C 5.152344 -6.160156 5.503906 -6.902344 5.898438 -7.644531 C 5.984375 -7.773438 6.59375 -9.347656 6.902344 -9.433594 C 6.683594 -9.304688 5.765625 -7.164062 5.546875 -6.769531 L 4.71875 -4.847656 C 4.28125 -3.800781 3.800781 -2.707031 3.496094 -1.574219 C 3.800781 -2.882812 4.324219 -4.148438 4.847656 -5.371094 Z M 3.800781 3.015625 C 4.0625 3.363281 4.410156 3.710938 4.890625 3.886719 C 4.5 3.757812 4.148438 3.539062 3.886719 3.277344 C 3.929688 3.277344 3.929688 3.320312 3.929688 3.363281 C 3.667969 3.015625 3.320312 2.269531 3.277344 2.140625 C 3.144531 1.617188 3.101562 1.003906 3.144531 0.480469 C 3.144531 0.0429688 3.1875 -0.304688 3.277344 -0.699219 L 3.277344 -0.65625 C 3.1875 -0.0859375 3.144531 0.480469 3.1875 1.09375 L 3.1875 1.308594 C 3.144531 1.265625 3.144531 1.222656 3.144531 1.222656 C 3.144531 1.222656 3.144531 1.265625 3.1875 1.355469 L 3.1875 1.398438 L 3.363281 2.316406 L 3.230469 1.746094 C 3.320312 2.007812 3.539062 2.488281 3.757812 2.96875 L 3.710938 2.925781 C 3.710938 2.96875 3.757812 3.015625 3.800781 3.058594 Z M 5.023438 -11.398438 C 5.242188 -11.226562 5.632812 -11.183594 6.027344 -11.136719 C 5.679688 -11.183594 5.371094 -11.269531 5.152344 -11.445312 C 5.152344 -11.445312 4.890625 -11.664062 4.847656 -11.75 C 4.847656 -11.664062 4.9375 -11.445312 5.023438 -11.398438 Z M 9.609375 -7.992188 L 8.691406 -6.070312 L 9.609375 -8.035156 Z M 3.320312 -0.828125 C 3.320312 -0.785156 3.277344 -0.742188 3.277344 -0.699219 L 3.277344 -0.742188 C 3.277344 -0.785156 3.320312 -0.785156 3.320312 -0.828125 Z M 9.652344 -8.125 L 9.652344 -8.082031 L 9.609375 -8.082031 Z M 9.652344 -8.125 L 9.652344 -8.082031 L 9.609375 -8.082031 Z M 3.363281 -1.398438 C 3.363281 -1.441406 3.40625 -1.484375 3.40625 -1.574219 C 3.40625 -1.484375 3.363281 -1.441406 3.363281 -1.398438 Z M 3.539062 2.621094 C 3.539062 2.621094 3.582031 2.664062 3.582031 2.707031 C 3.582031 2.664062 3.539062 2.664062 3.539062 2.621094 Z M 4.890625 -11.835938 C 4.847656 -11.835938 4.847656 -11.792969 4.847656 -11.792969 Z M 4.890625 -11.835938 "/></g></g></g><g fill="#a6584c" fill-opacity="1"><g transform="translate(254.586815, 53.660203)"><g><path d="M 11.445312 -10.746094 C 11.355469 -11.3125 10.746094 -11.136719 10.4375 -10.917969 C 10.046875 -10.65625 7.863281 -7.773438 8.035156 -7.554688 C 8.167969 -7.554688 8.253906 -7.554688 8.34375 -7.644531 C 7.730469 -6.902344 6.59375 -6.070312 5.765625 -5.417969 C 5.285156 -5.023438 4.105469 -3.929688 3.40625 -4.28125 C 1.921875 -5.023438 4.9375 -10.265625 4.804688 -10.308594 C 4.671875 -10.351562 3.582031 -7.90625 3.363281 -7.339844 C 3.886719 -8.867188 4.585938 -10.394531 5.417969 -11.75 C 5.371094 -11.617188 5.242188 -11.398438 5.328125 -11.398438 C 5.417969 -11.355469 6.070312 -12.273438 5.941406 -12.359375 C 5.898438 -12.359375 5.808594 -12.359375 5.765625 -12.316406 C 5.898438 -12.449219 6.113281 -12.492188 6.113281 -12.753906 C 6.113281 -13.191406 5.109375 -13.628906 4.761719 -13.757812 C 3.929688 -14.109375 3.101562 -14.195312 2.445312 -13.757812 C 1.574219 -13.234375 1.398438 -12.1875 1.046875 -11.269531 C 0.960938 -11.007812 0.132812 -7.90625 0.304688 -7.863281 C 0.394531 -7.90625 0.394531 -7.949219 0.4375 -8.035156 L 0.304688 -7.25 C 0.261719 -7.25 0.347656 -7.46875 0.261719 -7.46875 C -0.0859375 -7.46875 0 -5.898438 0.0429688 -5.679688 C 0.21875 -4.890625 0.828125 -4.324219 1.308594 -3.667969 C 1.574219 -3.277344 1.835938 -2.882812 2.226562 -2.621094 C 2.75 -2.226562 2.402344 -2.621094 2.75 -2.445312 L 2.664062 -2.445312 C 2.621094 -2.183594 4.28125 -1.746094 4.628906 -1.789062 C 6.160156 -2.140625 7.25 -4.019531 8.125 -5.199219 C 8.953125 -6.246094 9.652344 -7.292969 10.394531 -8.386719 C 10.832031 -8.953125 11.617188 -9.914062 11.445312 -10.746094 Z M 3.800781 -16.25 C 3.886719 -16.117188 3.757812 -15.941406 4.0625 -15.769531 C 4.367188 -15.636719 4.542969 -15.8125 4.804688 -15.898438 C 5.328125 -16.117188 5.722656 -16.683594 6.113281 -17.035156 C 6.246094 -17.121094 5.984375 -17.078125 5.984375 -17.078125 C 6.550781 -17.601562 6.070312 -16.992188 6.59375 -17.296875 C 7.121094 -17.644531 7.207031 -18.214844 7.644531 -18.695312 C 7.121094 -18.476562 6.726562 -18.171875 6.378906 -17.734375 C 5.941406 -17.164062 5.632812 -16.902344 5.152344 -16.597656 C 5.679688 -16.992188 5.941406 -17.382812 6.378906 -18.082031 C 6.507812 -18.214844 6.640625 -18.300781 6.8125 -18.390625 C 6.683594 -18.519531 6.683594 -18.652344 6.859375 -18.78125 C 6.988281 -19 7.25 -19.085938 7.382812 -19.304688 C 7.601562 -19.613281 7.554688 -20.003906 7.820312 -20.3125 C 8.035156 -20.484375 8.34375 -20.617188 8.515625 -20.792969 C 8.910156 -21.140625 9.347656 -21.796875 9.171875 -22.363281 C 8.996094 -22.886719 8.5625 -23.542969 8.082031 -23.847656 C 7.511719 -24.152344 6.726562 -24.285156 6.113281 -24.023438 C 5.984375 -23.980469 5.460938 -23.847656 5.632812 -23.675781 C 5.679688 -23.585938 5.722656 -23.585938 5.808594 -23.585938 C 5.417969 -23.28125 4.761719 -22.757812 5.679688 -22.40625 C 5.589844 -22.320312 5.679688 -21.925781 5.679688 -21.882812 C 5.632812 -21.578125 5.023438 -19.960938 4.628906 -19.175781 L 5.152344 -19.960938 C 4.847656 -19.304688 4.5 -18.695312 4.105469 -18.171875 C 4.367188 -18.738281 3.84375 -18.082031 3.84375 -17.953125 C 3.363281 -18.171875 3.496094 -16.816406 3.539062 -16.683594 C 3.539062 -16.640625 3.800781 -16.25 3.800781 -16.25 Z M 2.96875 -5.851562 L 2.96875 -5.808594 L 2.882812 -5.546875 L 2.96875 -5.898438 C 3.015625 -5.941406 3.015625 -5.941406 2.96875 -5.851562 Z M 4.410156 -18.824219 C 4.410156 -18.824219 4.5 -18.914062 4.585938 -19.085938 Z M 3.976562 -17.996094 C 3.976562 -17.953125 3.976562 -17.953125 3.929688 -17.910156 C 3.929688 -17.910156 3.929688 -17.953125 3.886719 -17.953125 C 3.929688 -17.953125 3.929688 -17.953125 3.976562 -17.996094 Z M 3.976562 -17.996094 "/></g></g></g><g fill="#a6584c" fill-opacity="1"><g transform="translate(262.841578, 53.660203)"><g><path d="M 17.339844 -10.265625 C 17.210938 -10.875 16.859375 -10.964844 16.421875 -10.789062 C 15.59375 -10.394531 14.761719 -9.523438 13.976562 -8.996094 C 12.1875 -7.863281 10.394531 -6.945312 8.472656 -5.984375 C 8.472656 -6.027344 8.429688 -6.113281 8.386719 -6.246094 C 8.429688 -6.027344 8.386719 -5.941406 8.34375 -5.898438 C 7.90625 -7.773438 7.46875 -9.652344 7.121094 -11.574219 C 7.292969 -10.746094 7.6875 -9.347656 7.992188 -8.167969 C 7.601562 -10.003906 7.121094 -12.273438 7.164062 -12.273438 C 7.074219 -12.230469 7.074219 -12.144531 7.074219 -12.054688 C 6.988281 -12.578125 6.859375 -13.234375 6.945312 -13.800781 C 6.988281 -14.457031 7.339844 -15.027344 7.554688 -15.636719 C 7.511719 -15.332031 7.425781 -14.9375 7.425781 -14.9375 C 7.6875 -14.894531 7.863281 -16.511719 7.863281 -16.683594 C 7.820312 -16.949219 7.25 -17.777344 7.25 -17.558594 C 6.070312 -18.652344 3.757812 -16.25 3.40625 -15.199219 C 3.144531 -14.5 3.144531 -13.757812 3.1875 -13.015625 C 3.230469 -12.273438 3.449219 -11.617188 3.667969 -10.917969 C 3.800781 -10.394531 3.625 -10.046875 3.667969 -9.476562 C 3.757812 -8.605469 4.0625 -7.730469 4.238281 -6.902344 C 4.410156 -6.246094 4.980469 -4.9375 4.847656 -4.324219 C 4.761719 -3.710938 3.449219 -3.1875 2.882812 -2.839844 C 2.140625 -2.359375 1.398438 -1.789062 0.65625 -1.222656 C -0.65625 -0.21875 -2.054688 1.046875 -2.578125 2.664062 C -2.664062 2.882812 -2.96875 3.84375 -2.664062 4.019531 C -2.621094 4.0625 -2.488281 3.320312 -2.445312 3.230469 C -3.015625 6.113281 -0.175781 7.511719 2.488281 7.554688 C 5.503906 7.644531 7.601562 5.898438 8.648438 3.1875 C 9.085938 2.007812 9.214844 0.785156 9.171875 -0.4375 C 9.171875 -1.265625 9.085938 -2.054688 8.953125 -2.839844 C 8.867188 -3.539062 8.78125 -3.496094 9.261719 -3.886719 C 9.609375 -4.148438 10.132812 -4.324219 10.484375 -4.5 C 11.878906 -5.242188 13.148438 -6.113281 14.414062 -7.03125 C 15.332031 -7.6875 17.515625 -8.824219 17.339844 -10.222656 Z M -0.304688 4.761719 C -1.441406 4.410156 -0.304688 2.621094 0.0859375 2.054688 C 0.742188 1.179688 1.703125 0.523438 2.578125 -0.0859375 L 3.886719 -0.960938 C 4.019531 -1.046875 4.847656 -1.703125 4.585938 -1.617188 L 5.109375 -1.921875 L 4.804688 -1.660156 C 4.890625 -1.703125 5.023438 -1.746094 5.109375 -1.835938 C 5.152344 -0.785156 5.152344 0.261719 4.847656 1.308594 C 4.804688 1.484375 3.976562 3.230469 3.625 3.582031 L 3.84375 3.40625 C 3.449219 3.886719 3.015625 4.28125 2.488281 4.585938 C 2.488281 4.542969 2.882812 4.28125 2.839844 4.238281 L 1.617188 4.71875 C 1.003906 4.847656 0.304688 4.980469 -0.304688 4.761719 Z M 5.199219 6.027344 C 4.0625 6.507812 2.96875 6.726562 1.789062 6.769531 C 3.929688 6.640625 6.160156 5.589844 7.425781 3.800781 C 6.945312 4.761719 6.332031 5.503906 5.199219 6.027344 Z M 8.386719 -6.378906 C 8.34375 -6.683594 8.253906 -7.121094 8.125 -7.601562 C 8.210938 -7.121094 8.300781 -6.640625 8.386719 -6.378906 Z M 8.953125 -1.835938 C 8.910156 -1.878906 8.910156 -1.964844 8.910156 -2.054688 C 8.910156 -1.964844 8.953125 -1.878906 8.953125 -1.835938 Z M 8.953125 -1.835938 "/></g></g></g><g fill="#a6584c" fill-opacity="1"><g transform="translate(276.992568, 53.660203)"><g><path d="M 17.734375 -22.714844 C 17.691406 -23.324219 17.035156 -22.84375 16.683594 -22.84375 C 14.9375 -22.757812 13.191406 -22.757812 11.488281 -22.667969 C 11.488281 -22.714844 11.574219 -22.886719 11.707031 -23.148438 C 11.53125 -22.84375 11.398438 -22.667969 11.269531 -22.667969 C 12.578125 -25.332031 13.976562 -27.996094 15.636719 -30.445312 C 15.59375 -30.355469 14.9375 -29.265625 14.980469 -29.265625 C 15.113281 -29.222656 16.730469 -31.449219 16.773438 -31.753906 C 16.773438 -31.929688 16.378906 -31.492188 16.378906 -31.535156 C 16.640625 -31.796875 17.078125 -32.015625 17.210938 -32.367188 C 17.515625 -33.238281 16.597656 -33.632812 15.941406 -33.761719 C 14.589844 -34.027344 13.058594 -33.851562 12.1875 -32.714844 C 11.355469 -31.710938 10.746094 -30.53125 10.222656 -29.351562 C 9.957031 -28.828125 9.609375 -28.695312 9.261719 -28.214844 C 8.734375 -27.472656 8.386719 -26.601562 7.992188 -25.769531 C 7.644531 -25.027344 7.292969 -24.242188 6.988281 -23.457031 C 6.8125 -23.0625 6.8125 -22.757812 6.421875 -22.625 C 6.027344 -22.449219 5.285156 -22.582031 4.847656 -22.539062 C 3.144531 -22.320312 1.484375 -22.40625 -0.21875 -22.234375 C -1.09375 -22.1875 -1.964844 -22.1875 -2.796875 -21.882812 C -2.96875 -21.839844 -3.929688 -21.621094 -4.019531 -21.488281 C -4.28125 -21.007812 -3.230469 -20.964844 -3.015625 -20.921875 C -1.355469 -20.703125 0.742188 -20.527344 2.402344 -20.835938 C 3.539062 -21.054688 4.71875 -20.964844 5.941406 -21.054688 C 5.328125 -19.742188 4.847656 -18.34375 4.367188 -16.949219 L 3.84375 -15.417969 C 3.667969 -14.9375 3.101562 -14.019531 3.101562 -13.496094 C 3.101562 -13.410156 3.230469 -13.628906 3.320312 -13.847656 C 3.101562 -13.191406 2.839844 -12.535156 2.664062 -11.878906 C 2.664062 -11.925781 2.796875 -12.449219 2.75 -12.449219 C 2.535156 -12.449219 1.660156 -9.785156 1.574219 -9.566406 C 1.136719 -8.253906 0.65625 -6.945312 0.4375 -5.546875 C 0.175781 -4.148438 -0.175781 -2.796875 -0.480469 -1.441406 C -0.65625 -0.742188 -0.828125 -0.0859375 -0.917969 0.613281 C -1.003906 0.960938 -1.09375 1.355469 -1.09375 1.703125 C -1.09375 1.789062 -1.09375 2.359375 -1.003906 2.183594 L -1.09375 3.058594 L -1.09375 2.402344 C -1.355469 2.707031 -1.09375 4.105469 -1.046875 4.367188 C -0.875 5.242188 -0.4375 6.027344 0.347656 6.550781 C 1.046875 7.074219 2.140625 7.554688 2.96875 7.164062 C 4.0625 6.640625 4.980469 5.417969 5.679688 4.542969 C 7.207031 2.75 8.605469 0.875 10.003906 -1.003906 C 11.269531 -2.75 12.578125 -4.457031 13.671875 -6.289062 C 14.28125 -7.339844 15.460938 -8.300781 15.855469 -9.476562 C 16.074219 -10.046875 15.941406 -10.746094 15.242188 -10.613281 C 14.675781 -10.484375 13.890625 -8.953125 13.539062 -8.515625 C 11.96875 -6.550781 10.484375 -4.542969 8.910156 -2.578125 L 6.378906 0.523438 C 5.984375 0.960938 5.589844 1.441406 5.152344 1.878906 C 4.980469 2.097656 3.886719 2.96875 3.929688 3.230469 C 3.929688 3.320312 4.410156 2.925781 4.585938 2.796875 C 4.367188 3.058594 4.105469 3.277344 3.886719 3.496094 C 3.929688 3.449219 3.015625 3.976562 2.882812 3.886719 C 2.054688 3.539062 2.796875 1.003906 2.925781 0.394531 C 3.710938 -3.144531 4.890625 -6.726562 6.070312 -10.132812 C 6.769531 -12.011719 7.46875 -13.800781 8.253906 -15.636719 C 8.648438 -16.554688 9.042969 -17.515625 9.476562 -18.433594 L 10.089844 -20.09375 L 9.609375 -19.132812 C 9.914062 -19.917969 10.351562 -21.097656 10.613281 -21.140625 L 10.484375 -20.878906 C 10.570312 -21.007812 10.65625 -21.097656 10.746094 -21.140625 C 11.226562 -21.445312 12.449219 -21.140625 13.015625 -21.140625 C 13.410156 -21.140625 13.890625 -21.097656 14.28125 -21.226562 C 14.546875 -21.316406 14.457031 -21.445312 14.761719 -21.535156 C 15.289062 -21.621094 15.941406 -21.273438 16.511719 -21.445312 C 17.035156 -21.578125 17.777344 -22.058594 17.734375 -22.667969 Z M 9.433594 -20.179688 C 7.46875 -16.03125 5.984375 -11.574219 4.410156 -7.25 C 3.667969 -5.285156 2.96875 -3.230469 2.488281 -1.179688 L 2.269531 -0.347656 C 2.578125 -1.921875 2.925781 -3.449219 3.363281 -4.980469 C 4.324219 -8.34375 5.546875 -11.664062 6.988281 -14.851562 C 9.433594 -20.3125 11.617188 -26.164062 15.113281 -31.097656 C 12.753906 -27.734375 11.183594 -23.890625 9.433594 -20.179688 Z M 12.316406 -24.503906 L 13.367188 -26.511719 C 13.148438 -26.46875 12.753906 -25.507812 12.316406 -24.503906 Z M 7.820312 -14.980469 C 7.511719 -14.152344 7.164062 -13.367188 6.8125 -12.578125 C 7.164062 -13.410156 7.46875 -14.28125 7.863281 -15.15625 C 7.820312 -15.070312 7.820312 -15.027344 7.820312 -14.980469 Z M 11.75 -23.238281 L 12.1875 -24.199219 C 12.054688 -23.847656 11.878906 -23.5 11.75 -23.238281 Z M 2.226562 4.28125 C 2.183594 4.28125 2.140625 4.238281 2.097656 4.191406 Z M 2.226562 4.28125 "/></g></g></g><g fill="#a6584c" fill-opacity="1"><g transform="translate(290.401081, 53.660203)"><g><path d="M 16.730469 -10.789062 C 16.730469 -10.746094 16.730469 -10.746094 16.683594 -10.789062 L 16.683594 -10.832031 C 15.988281 -12.011719 15.070312 -10.394531 14.675781 -9.828125 C 13.933594 -8.824219 13.234375 -7.863281 12.449219 -6.945312 C 11.792969 -6.160156 11.09375 -5.371094 10.570312 -4.542969 C 10.570312 -4.457031 10.484375 -4.238281 10.484375 -4.238281 C 10.308594 -3.976562 10.046875 -3.757812 9.828125 -3.496094 C 9.433594 -3.101562 9.042969 -2.664062 8.605469 -2.269531 C 7.949219 -1.660156 4.28125 1.789062 3.800781 -0.4375 C 3.539062 -1.527344 3.886719 -2.882812 4.105469 -3.929688 C 4.238281 -4.5 4.367188 -5.023438 4.457031 -5.589844 C 4.542969 -6.027344 4.410156 -6.464844 4.628906 -6.902344 C 4.761719 -7.164062 4.804688 -7.121094 5.109375 -7.207031 L 5.851562 -7.46875 C 6.332031 -7.644531 6.8125 -7.820312 7.25 -8.082031 C 7.90625 -8.472656 8.515625 -8.953125 9.085938 -9.433594 C 10.4375 -10.570312 11.878906 -11.925781 12.449219 -13.628906 C 12.753906 -14.589844 12.796875 -15.636719 12.1875 -16.46875 C 11.617188 -17.210938 10.65625 -17.601562 9.785156 -17.777344 C 7.425781 -18.214844 5.632812 -16.859375 4.28125 -15.070312 C 2.621094 -13.015625 1.441406 -10.484375 0.875 -7.90625 C 0.566406 -6.640625 0.394531 -5.371094 0.175781 -4.0625 C -0.0429688 -2.75 -0.175781 -1.527344 0.523438 -0.304688 C 0.480469 -0.742188 0.394531 -1.136719 0.394531 -1.527344 C 0.394531 -1.746094 0.480469 -1.964844 0.480469 -2.140625 C 0.480469 -2.226562 0.394531 -2.488281 0.394531 -2.621094 C 0.394531 -3.015625 0.480469 -3.320312 0.566406 -3.710938 C 0.613281 -4.105469 0.566406 -4.5 0.613281 -4.890625 C 0.65625 -5.328125 0.828125 -5.679688 1.003906 -6.070312 C 1.136719 -6.421875 1.179688 -6.726562 1.308594 -7.074219 C 1.441406 -7.382812 1.527344 -7.730469 1.660156 -8.082031 C 1.703125 -8.300781 1.921875 -8.5625 2.054688 -8.824219 C 1.921875 -8.429688 1.660156 -8.082031 1.574219 -7.730469 C 1.441406 -7.207031 1.527344 -6.640625 1.484375 -6.113281 C 1.398438 -5.546875 1.222656 -4.980469 1.136719 -4.367188 C 1.046875 -3.800781 0.785156 -3.277344 0.699219 -2.707031 C 0.613281 -2.183594 0.4375 -1.789062 0.480469 -1.265625 C 0.480469 -0.960938 0.523438 -0.65625 0.566406 -0.394531 C 0.613281 -0.0429688 0.828125 0.175781 1.046875 0.4375 C 1.789062 1.308594 2.796875 2.007812 3.929688 2.316406 C 4.71875 2.535156 5.417969 2.488281 6.160156 2.097656 C 7.207031 1.527344 8.125 0.65625 8.910156 -0.175781 C 9.652344 -1.003906 10.222656 -1.921875 10.875 -2.796875 C 11.488281 -3.582031 12.230469 -4.324219 12.839844 -5.109375 L 15.199219 -8.167969 L 16.554688 -9.957031 C 16.773438 -10.222656 16.902344 -10.4375 16.730469 -10.789062 Z M 5.898438 -10.308594 C 5.941406 -10.394531 5.941406 -10.4375 5.941406 -10.4375 C 6.59375 -11.835938 7.074219 -13.320312 7.992188 -14.675781 L 8.78125 -15.722656 C 8.953125 -15.941406 9.261719 -16.335938 9.566406 -16.421875 C 10.222656 -16.554688 10.394531 -15.417969 10.351562 -14.980469 L 10.175781 -14.066406 C 10.132812 -13.800781 10.222656 -13.628906 10.175781 -13.410156 C 10.089844 -13.148438 9.871094 -13.015625 9.742188 -12.796875 L 8.996094 -11.835938 C 7.992188 -10.65625 6.726562 -9.652344 5.328125 -8.910156 C 5.546875 -9.390625 5.679688 -9.871094 5.898438 -10.308594 Z M 5.898438 -10.308594 "/></g></g></g><g fill="#a6584c" fill-opacity="1"><g transform="translate(303.984311, 53.660203)"><g><path d="M 22.234375 -10.527344 C 22.1875 -11.488281 21.402344 -10.65625 21.140625 -10.308594 C 20.574219 -9.476562 20.046875 -8.605469 19.523438 -7.773438 C 18.34375 -5.984375 17.164062 -4.191406 15.8125 -2.488281 C 11.3125 3.058594 14.457031 -6.8125 14.109375 -6.726562 C 13.933594 -6.683594 13.800781 -6.027344 13.757812 -5.898438 C 14.109375 -7.46875 14.761719 -9.347656 15.59375 -10.875 C 16.074219 -11.835938 16.640625 -12.625 15.769531 -13.671875 C 14.152344 -15.636719 12.273438 -13.847656 11.226562 -12.492188 C 10.789062 -14.152344 9.914062 -16.597656 7.773438 -16.597656 C 6.8125 -16.597656 6.246094 -16.117188 5.589844 -15.550781 C 5.199219 -15.289062 4.890625 -15.242188 4.542969 -14.9375 C 3.976562 -14.546875 3.582031 -13.933594 3.1875 -13.410156 C 1.703125 -11.226562 0.65625 -8.472656 0.175781 -5.941406 C -0.0429688 -4.71875 -0.132812 -3.363281 0.21875 -2.140625 C 0.4375 -1.441406 1.222656 0.132812 2.226562 0 C 2.269531 0 2.183594 -0.0429688 2.054688 -0.132812 C 2.664062 0.0429688 3.363281 -0.0429688 3.886719 -0.394531 C 3.929688 -0.304688 3.40625 -0.0859375 3.40625 -0.0859375 C 3.886719 0.65625 7.46875 -3.667969 7.730469 -4.0625 C 8.300781 -4.847656 8.691406 -5.679688 9.214844 -6.507812 C 9.609375 -7.121094 10.222656 -7.90625 10.65625 -8.5625 C 10.613281 -8.253906 10.613281 -7.863281 10.613281 -7.863281 C 9.828125 -5.371094 9.085938 -2.664062 10.132812 -0.0859375 C 10.613281 1.222656 11.792969 2.445312 13.277344 2.183594 C 14.589844 1.964844 15.679688 0.699219 16.46875 -0.304688 C 17.429688 -1.441406 18.257812 -2.707031 19.085938 -4.019531 C 19.785156 -5.199219 20.441406 -6.378906 21.007812 -7.6875 C 21.359375 -8.515625 22.320312 -9.523438 22.234375 -10.527344 Z M 9.695312 -10.222656 C 9.476562 -9.914062 9.261719 -9.609375 9.085938 -9.304688 L 7.949219 -7.6875 C 7.207031 -6.59375 6.421875 -5.546875 5.589844 -4.542969 C 5.371094 -4.238281 4.324219 -2.882812 3.886719 -3.015625 C 3.230469 -3.230469 3.929688 -5.503906 4.019531 -5.851562 C 4.148438 -6.464844 6.464844 -13.191406 7.074219 -13.320312 C 6.289062 -13.367188 3.757812 -5.460938 3.625 -4.804688 C 3.976562 -6.945312 4.761719 -9.042969 5.632812 -11.007812 C 6.113281 -12.011719 7.207031 -14.675781 8.648438 -14.675781 C 9.433594 -14.675781 9.609375 -13.058594 9.742188 -12.535156 C 9.695312 -12.625 9.304688 -13.890625 9.261719 -13.847656 C 9.042969 -13.671875 9.914062 -11.269531 9.914062 -10.917969 C 9.914062 -10.570312 9.914062 -10.570312 9.695312 -10.222656 Z M 10.703125 -8.082031 C 10.703125 -8.082031 10.832031 -8.691406 10.875 -8.824219 L 11.09375 -9.128906 Z M 10.046875 -10.789062 L 10.046875 -11.226562 C 10.175781 -11.050781 10.175781 -10.917969 10.046875 -10.789062 Z M 10.046875 -10.789062 "/></g></g></g></svg>