<svg xmlns="http://www.w3.org/2000/svg" xmlns:xlink="http://www.w3.org/1999/xlink" width="292" zoomAndPan="magnify" viewBox="0 0 218.87999 95.249998" height="127" preserveAspectRatio="xMidYMid meet" version="1.0"><defs><g/></defs><g fill="#0a0b0a" fill-opacity="1"><g transform="translate(19.278688, 59.684992)"><g><path d="M 40.003906 -35.796875 C 39.953125 -36.042969 39.808594 -36.1875 39.5625 -36.238281 C 39.320312 -36.285156 39.269531 -35.992188 39.171875 -35.945312 C 38.925781 -35.945312 38.632812 -35.992188 38.390625 -36.042969 C 36.042969 -36.1875 33.695312 -36.140625 31.347656 -36.042969 C 30.761719 -35.992188 30.171875 -35.945312 29.585938 -35.945312 C 29.34375 -35.894531 28.949219 -35.796875 28.65625 -35.847656 C 28.21875 -35.992188 28.65625 -35.894531 28.363281 -36.1875 C 27.777344 -36.726562 27.582031 -37.117188 26.703125 -37.410156 C 25.871094 -37.65625 24.402344 -37.753906 23.765625 -37.019531 C 23.425781 -36.628906 23.425781 -35.847656 22.789062 -35.457031 C 22.398438 -35.210938 21.566406 -35.308594 21.125 -35.257812 C 20.636719 -35.210938 20.148438 -35.113281 19.660156 -34.964844 C 18.730469 -34.769531 17.898438 -34.671875 16.921875 -34.574219 C 14.574219 -34.429688 12.273438 -33.988281 9.925781 -33.597656 C 9.4375 -33.546875 8.605469 -33.449219 8.070312 -33.15625 C 6.359375 -32.277344 8.265625 -30.613281 9.4375 -30.269531 C 10.660156 -29.929688 11.882812 -30.074219 13.105469 -30.222656 C 14.183594 -30.371094 15.308594 -30.371094 16.332031 -30.664062 C 16.96875 -30.808594 17.410156 -31.054688 18.046875 -31.152344 C 18.875 -31.25 19.707031 -31.347656 20.539062 -31.492188 C 18.386719 -27.140625 16.773438 -22.59375 15.0625 -18.09375 C 13.300781 -13.59375 11.542969 -9.097656 10.023438 -4.546875 C 9.4375 -2.691406 8.605469 -0.636719 7.382812 0.878906 C 6.796875 1.664062 6.601562 1.613281 5.820312 1.027344 C 4.15625 -0.292969 3.128906 -2.296875 1.957031 -3.960938 C 1.613281 -4.449219 0.832031 -5.625 0.195312 -4.9375 C -0.0507812 -4.695312 0 -4.109375 0 -3.765625 C 0.0507812 -2.101562 0.683594 0.148438 1.46875 1.613281 C 2.492188 3.570312 4.304688 5.085938 6.503906 5.28125 C 10.464844 5.625 12.617188 -0.34375 13.691406 -3.179688 C 15.160156 -7.1875 17.066406 -11.050781 18.679688 -14.964844 C 19.023438 -15.84375 19.171875 -16.675781 19.367188 -17.507812 C 19.660156 -18.582031 20.246094 -19.609375 20.6875 -20.636719 C 21.46875 -22.398438 22.105469 -24.257812 23.035156 -25.96875 L 24.890625 -29.683594 C 25.183594 -30.222656 25.578125 -30.761719 25.773438 -31.347656 C 25.820312 -31.589844 25.773438 -31.886719 25.871094 -32.082031 C 26.308594 -32.960938 27.726562 -32.714844 28.558594 -32.8125 L 32.082031 -33.402344 C 32.667969 -33.5 33.304688 -33.597656 33.9375 -33.742188 C 34.136719 -33.792969 34.378906 -33.839844 34.574219 -33.9375 C 34.722656 -33.988281 34.867188 -34.28125 34.917969 -34.28125 C 35.75 -34.574219 36.921875 -34.476562 37.800781 -34.671875 C 38.339844 -34.769531 40.101562 -34.917969 40.003906 -35.796875 Z M 21.371094 -24.453125 C 20.636719 -23.132812 18.242188 -17.652344 17.3125 -15.550781 C 18.289062 -18.046875 20.394531 -23.765625 21.273438 -25.773438 C 22.007812 -27.53125 23.621094 -29.878906 24.695312 -31.492188 C 23.425781 -29.246094 22.542969 -26.703125 21.371094 -24.453125 Z M 21.371094 -24.453125 "/></g></g></g><g fill="#0a0b0a" fill-opacity="1"><g transform="translate(40.89352, 59.684992)"><g><path d="M 24.257812 -12.03125 C 24.011719 -12.03125 23.667969 -11.542969 23.523438 -11.394531 C 22.839844 -10.710938 22.25 -9.925781 21.664062 -9.195312 C 20.050781 -7.335938 18.4375 -5.429688 16.675781 -3.714844 C 16.234375 -3.324219 15.109375 -2.003906 14.476562 -2.445312 C 14.085938 -2.691406 14.425781 -4.253906 14.476562 -4.597656 C 14.574219 -5.035156 15.453125 -7.335938 15.160156 -7.628906 C 15.011719 -7.726562 14.769531 -6.992188 14.71875 -6.945312 C 15.503906 -9.683594 17.066406 -12.8125 18.339844 -15.503906 C 19.074219 -16.96875 20 -18.777344 18.777344 -20.296875 C 16.628906 -22.9375 13.9375 -19.5625 12.46875 -17.996094 C 11.835938 -17.3125 5.671875 -9.78125 5.769531 -9.730469 C 5.769531 -9.730469 6.210938 -10.269531 6.847656 -11.003906 C 5.917969 -9.78125 5.035156 -8.558594 4.207031 -7.285156 C 4.742188 -9.292969 5.332031 -11.246094 5.964844 -13.203125 C 6.308594 -14.183594 6.601562 -15.210938 6.945312 -16.234375 C 7.335938 -17.3125 7.628906 -17.753906 8.460938 -18.535156 C 9.878906 -19.804688 11.246094 -21.175781 12.519531 -22.640625 C 13.007812 -23.230469 13.351562 -23.914062 13.839844 -24.453125 C 14.28125 -24.890625 14.914062 -25.285156 15.40625 -25.820312 C 17.898438 -28.753906 19.902344 -32.421875 21.566406 -35.847656 C 22.300781 -37.460938 22.984375 -39.121094 23.472656 -40.835938 C 23.570312 -41.226562 24.648438 -45.726562 24.402344 -45.726562 C 24.355469 -45.726562 24.355469 -45.675781 24.304688 -45.578125 C 24.355469 -46.359375 24.304688 -47.242188 24.011719 -48.023438 C 24.0625 -48.023438 24.304688 -47.289062 24.304688 -47.289062 C 24.597656 -47.484375 23.71875 -49 23.523438 -49.195312 C 23.082031 -49.636719 22.445312 -49.882812 21.8125 -49.882812 C 20.539062 -49.980469 19.367188 -49.296875 18.386719 -48.5625 C 16.53125 -47.144531 15.210938 -45.039062 13.839844 -43.132812 C 13.058594 -42.058594 12.324219 -40.980469 11.640625 -39.855469 C 11.148438 -39.121094 10.074219 -37.800781 10.074219 -36.921875 C 10.125 -36.875 10.171875 -36.875 10.171875 -36.875 L 9.585938 -35.75 C 9.585938 -35.75 9.878906 -36.628906 9.925781 -36.679688 C 9.683594 -36.53125 9.4375 -35.503906 9.4375 -35.457031 C 7.53125 -31.738281 5.527344 -28.167969 4.207031 -24.207031 C 2.691406 -19.757812 1.566406 -15.160156 0.734375 -10.5625 C 0.34375 -8.460938 -0.148438 -6.160156 0.0507812 -4.011719 C 0.0507812 -3.421875 0.0976562 -2.738281 0.539062 -2.25 C 1.074219 -1.566406 2.199219 -1.320312 2.835938 -2.003906 C 3.03125 -2.25 3.03125 -2.394531 3.128906 -2.640625 L 4.011719 -4.207031 C 5.183594 -6.015625 6.601562 -7.679688 7.726562 -9.535156 C 7.875 -9.828125 8.019531 -10.171875 8.214844 -10.417969 C 8.460938 -10.710938 8.558594 -10.5625 8.851562 -10.808594 C 9.683594 -11.492188 10.320312 -12.519531 11.003906 -13.351562 C 12.421875 -15.109375 13.839844 -17.117188 15.648438 -18.582031 L 14.230469 -15.160156 L 14.378906 -15.308594 L 13.644531 -13.644531 C 13.59375 -13.691406 13.789062 -14.132812 13.789062 -14.183594 C 13.59375 -14.183594 12.667969 -12.273438 12.566406 -12.078125 C 11.980469 -10.90625 11.34375 -9.730469 11.003906 -8.507812 C 10.710938 -7.335938 10.367188 -6.160156 10.023438 -4.988281 C 9.878906 -4.253906 9.730469 -3.519531 9.78125 -2.789062 C 9.78125 -2.59375 10.171875 -0.832031 10.320312 -0.976562 L 10.320312 -1.171875 C 10.417969 -0.878906 10.515625 -0.636719 10.660156 -0.390625 L 10.367188 -0.832031 C 10.222656 -0.488281 11.542969 0.636719 11.6875 0.78125 C 12.421875 1.515625 13.15625 2.003906 14.28125 2.054688 C 15.210938 2.101562 15.699219 1.761719 16.382812 1.125 C 18.242188 -0.683594 19.5625 -3.179688 20.980469 -5.332031 C 21.761719 -6.457031 22.542969 -7.628906 23.277344 -8.800781 C 23.472656 -9.046875 24.792969 -11.785156 24.597656 -11.738281 C 24.890625 -11.785156 24.355469 -12.03125 24.257812 -12.03125 Z M 20 -44.941406 L 20 -44.992188 C 20 -44.992188 20.050781 -44.992188 20.050781 -45.039062 L 20.050781 -44.992188 C 20.097656 -45.089844 20.148438 -45.1875 20.097656 -45.136719 C 20.492188 -45.726562 21.46875 -47.484375 22.152344 -46.898438 C 22.839844 -46.3125 22.203125 -44.257812 22.007812 -43.523438 C 21.617188 -42.007812 21.027344 -40.542969 20.441406 -39.121094 C 19.269531 -36.382812 17.800781 -33.792969 16.1875 -31.25 C 15.40625 -30.027344 14.574219 -28.804688 13.742188 -27.628906 C 13.300781 -27.042969 12.863281 -26.457031 12.371094 -25.871094 L 11.980469 -25.429688 L 12.863281 -26.308594 L 14.816406 -29.046875 C 15.894531 -30.515625 16.921875 -32.128906 17.898438 -33.742188 C 15.40625 -29.34375 12.371094 -25.183594 8.851562 -21.46875 L 10.320312 -25.332031 C 10.464844 -25.625 11.492188 -28.511719 11.492188 -28.511719 C 11.394531 -28.460938 11.246094 -28.21875 11.101562 -27.972656 C 12.273438 -30.664062 13.789062 -33.449219 15.160156 -36.140625 C 16.675781 -39.074219 18.191406 -42.105469 19.953125 -44.894531 C 19.953125 -44.894531 20 -44.894531 20 -44.941406 Z M 7.726562 -20.980469 C 8.167969 -23.621094 9.390625 -26.113281 10.269531 -28.65625 C 11.050781 -30.808594 12.324219 -32.765625 13.300781 -34.820312 C 13.742188 -35.796875 18.4375 -44.746094 18.535156 -44.699219 C 18.925781 -44.453125 12.910156 -32.960938 12.273438 -31.589844 C 11.738281 -30.566406 11.246094 -29.585938 10.855469 -28.460938 C 10.515625 -27.386719 9.925781 -26.503906 9.535156 -25.480469 C 9.339844 -24.988281 7.382812 -19.855469 7.53125 -19.804688 C 7.433594 -19.804688 7.628906 -20.589844 7.679688 -20.832031 Z M 11.101562 -24.402344 C 11.199219 -24.5 11.296875 -24.695312 11.445312 -24.84375 C 11.296875 -24.695312 11.199219 -24.550781 11.101562 -24.402344 Z M 20 -44.941406 L 20 -44.992188 L 20.050781 -44.992188 Z M 7.726562 -20.929688 C 7.726562 -20.882812 7.679688 -20.832031 7.679688 -20.832031 C 7.679688 -20.882812 7.726562 -20.882812 7.726562 -20.929688 Z M 7.726562 -20.929688 "/></g></g></g><g fill="#0a0b0a" fill-opacity="1"><g transform="translate(61.970427, 59.684992)"><g><path d="M 24.890625 -11.785156 C 24.84375 -12.863281 23.960938 -11.933594 23.667969 -11.542969 C 23.035156 -10.613281 22.445312 -9.632812 21.859375 -8.703125 C 20.539062 -6.699219 19.21875 -4.695312 17.703125 -2.789062 C 12.667969 3.421875 16.1875 -7.628906 15.796875 -7.53125 C 15.601562 -7.480469 15.453125 -6.75 15.40625 -6.601562 C 15.796875 -8.363281 16.53125 -10.464844 17.457031 -12.175781 C 17.996094 -13.253906 18.632812 -14.132812 17.652344 -15.308594 C 15.84375 -17.507812 13.742188 -15.503906 12.566406 -13.988281 C 12.078125 -15.84375 11.101562 -18.582031 8.703125 -18.582031 C 7.628906 -18.582031 6.992188 -18.046875 6.257812 -17.410156 C 5.820312 -17.117188 5.476562 -17.066406 5.085938 -16.726562 C 4.449219 -16.285156 4.011719 -15.601562 3.570312 -15.011719 C 1.90625 -12.566406 0.734375 -9.488281 0.195312 -6.652344 C -0.0507812 -5.28125 -0.148438 -3.765625 0.246094 -2.394531 C 0.488281 -1.613281 1.371094 0.148438 2.492188 0 C 2.542969 0 2.445312 -0.0507812 2.296875 -0.148438 C 2.984375 0.0507812 3.765625 -0.0507812 4.351562 -0.441406 C 4.402344 -0.34375 3.816406 -0.0976562 3.816406 -0.0976562 C 4.351562 0.734375 8.363281 -4.109375 8.65625 -4.546875 C 9.292969 -5.429688 9.730469 -6.359375 10.320312 -7.285156 C 10.757812 -7.972656 11.445312 -8.851562 11.933594 -9.585938 C 11.882812 -9.242188 11.882812 -8.800781 11.882812 -8.800781 C 11.003906 -6.015625 10.171875 -2.984375 11.34375 -0.0976562 C 11.882812 1.371094 13.203125 2.738281 14.867188 2.445312 C 16.332031 2.199219 17.554688 0.78125 18.4375 -0.34375 C 19.511719 -1.613281 20.441406 -3.03125 21.371094 -4.5 C 22.152344 -5.820312 22.886719 -7.140625 23.523438 -8.605469 C 23.914062 -9.535156 24.988281 -10.660156 24.890625 -11.785156 Z M 10.855469 -11.445312 C 10.613281 -11.101562 10.367188 -10.757812 10.171875 -10.417969 L 8.902344 -8.605469 C 8.070312 -7.382812 7.1875 -6.210938 6.257812 -5.085938 C 6.015625 -4.742188 4.839844 -3.226562 4.351562 -3.375 C 3.617188 -3.617188 4.402344 -6.160156 4.5 -6.554688 C 4.644531 -7.238281 7.238281 -14.769531 7.921875 -14.914062 C 7.042969 -14.964844 4.207031 -6.113281 4.058594 -5.378906 C 4.449219 -7.777344 5.332031 -10.125 6.308594 -12.324219 C 6.847656 -13.449219 8.070312 -16.433594 9.683594 -16.433594 C 10.5625 -16.433594 10.757812 -14.621094 10.90625 -14.035156 C 10.855469 -14.132812 10.417969 -15.550781 10.367188 -15.503906 C 10.125 -15.308594 11.101562 -12.617188 11.101562 -12.226562 C 11.101562 -11.835938 11.101562 -11.835938 10.855469 -11.445312 Z M 11.980469 -9.046875 C 11.980469 -9.046875 12.128906 -9.730469 12.175781 -9.878906 L 12.421875 -10.222656 Z M 11.246094 -12.078125 L 11.246094 -12.566406 C 11.394531 -12.371094 11.394531 -12.226562 11.246094 -12.078125 Z M 11.246094 -12.078125 "/></g></g></g><g fill="#0a0b0a" fill-opacity="1"><g transform="translate(83.291836, 59.684992)"><g><path d="M 20.246094 -11.640625 C 20 -12.8125 19.316406 -12.03125 19.023438 -11.589844 C 18.339844 -10.757812 17.261719 -9.976562 16.433594 -9.195312 C 15.308594 -8.214844 14.183594 -7.1875 13.007812 -6.257812 C 12.421875 -5.769531 11.6875 -5.085938 10.953125 -4.839844 C 10.855469 -4.792969 10.515625 -4.742188 10.515625 -4.695312 L 10.464844 -4.742188 C 10.464844 -4.742188 10.417969 -5.527344 10.464844 -5.574219 C 10.515625 -6.210938 10.710938 -6.847656 10.90625 -7.433594 C 10.953125 -7.53125 11.492188 -9.195312 11.394531 -9.195312 L 11.148438 -8.902344 C 11.445312 -9.488281 11.835938 -10.074219 12.175781 -10.710938 C 11.394531 -9.976562 10.855469 -9.144531 10.464844 -8.117188 C 10.269531 -7.628906 9.730469 -6.75 9.632812 -6.015625 C 9.730469 -7.089844 10.464844 -8.507812 10.808594 -9.144531 C 11.296875 -10.171875 11.835938 -11.34375 12.46875 -12.324219 C 13.644531 -14.085938 16.1875 -15.699219 15.40625 -18.144531 C 14.71875 -20.441406 12.910156 -20.492188 11.492188 -19.171875 C 10.808594 -18.535156 4.988281 -11.101562 5.136719 -11.003906 C 5.136719 -11.003906 5.625 -11.589844 6.257812 -12.421875 L 3.375 -8.214844 C 3.324219 -8.214844 3.863281 -9.046875 3.816406 -9.097656 C 3.765625 -9.144531 3.421875 -8.800781 3.375 -8.605469 C 3.472656 -9.632812 3.816406 -10.660156 3.914062 -11.6875 C 3.960938 -12.078125 3.914062 -12.371094 4.011719 -12.765625 C 4.207031 -13.398438 4.402344 -14.085938 4.695312 -14.621094 C 4.890625 -15.011719 5.28125 -15.355469 5.378906 -15.746094 C 5.574219 -16.382812 5.527344 -16.628906 5.964844 -17.164062 C 6.359375 -17.652344 6.945312 -18.144531 7.285156 -18.582031 C 8.117188 -19.804688 6.699219 -20.636719 5.917969 -20.785156 C 5.28125 -20.882812 4.644531 -20.929688 4.058594 -20.589844 C 3.421875 -20.195312 3.570312 -19.855469 3.421875 -19.316406 C 3.277344 -18.632812 2.789062 -17.851562 2.542969 -17.214844 C 2.152344 -16.1875 1.808594 -15.160156 1.46875 -14.132812 C 1.074219 -13.105469 0.683594 -12.128906 0.390625 -11.101562 C 0.148438 -10.269531 0.195312 -9.488281 0.0976562 -8.703125 C 0 -7.824219 -0.148438 -7.238281 0.292969 -6.457031 C 0.78125 -5.625 2.101562 -4.351562 2.984375 -5.429688 L 3.179688 -5.035156 C 4.011719 -6.847656 5.28125 -8.460938 6.308594 -10.222656 C 6.75 -11.003906 7.53125 -11.542969 8.167969 -12.371094 C 9.046875 -13.546875 9.828125 -14.71875 10.808594 -15.84375 C 10.660156 -15.601562 10.023438 -14.476562 10.074219 -14.425781 C 10.171875 -14.476562 10.222656 -14.574219 10.320312 -14.671875 L 9.632812 -13.300781 C 9.585938 -13.351562 9.828125 -13.691406 9.730469 -13.691406 C 9.390625 -13.789062 8.363281 -11.050781 8.265625 -10.808594 C 7.921875 -9.730469 7.875 -8.753906 7.777344 -7.628906 C 7.726562 -7.089844 7.628906 -6.554688 7.628906 -6.015625 C 7.628906 -5.476562 7.679688 -4.9375 7.921875 -4.402344 C 8.070312 -4.109375 8.265625 -3.714844 8.507812 -3.472656 C 8.558594 -3.472656 9.097656 -2.984375 8.851562 -3.375 L 9.144531 -3.082031 L 9 -3.179688 C 8.949219 -2.933594 10.757812 -1.957031 11.050781 -1.859375 C 12.421875 -1.417969 13.886719 -2.984375 14.769531 -3.914062 C 15.941406 -5.183594 16.921875 -6.652344 17.996094 -8.019531 C 18.582031 -8.800781 20.441406 -10.464844 20.246094 -11.640625 Z M 20.246094 -11.640625 "/></g></g></g><g fill="#0a0b0a" fill-opacity="1"><g transform="translate(99.967527, 59.684992)"><g><path d="M 25.871094 -11.835938 C 25.820312 -12.714844 25.183594 -12.46875 24.746094 -12.078125 C 24.5 -11.835938 21.320312 -8.3125 21.46875 -8.070312 C 21.566406 -8.070312 21.714844 -8.070312 21.8125 -8.167969 C 20.882812 -7.238281 19.414062 -6.359375 18.289062 -5.527344 C 17.164062 -4.644531 15.894531 -3.03125 14.328125 -2.933594 C 14.183594 -2.933594 14.035156 -2.886719 13.839844 -2.933594 C 13.15625 -3.03125 11.492188 -6.015625 11.34375 -6.652344 C 11.394531 -6.160156 12.519531 -3.960938 12.8125 -3.472656 C 11.6875 -4.742188 11.101562 -6.652344 10.808594 -8.363281 C 10.855469 -8.214844 10.953125 -8.070312 11.003906 -8.070312 C 11.148438 -8.117188 10.953125 -9.097656 10.953125 -9.144531 C 11.050781 -9.242188 11.785156 -9.4375 11.980469 -9.535156 C 13.058594 -9.976562 14.085938 -10.515625 15.109375 -11.101562 C 17.019531 -12.128906 18.925781 -13.351562 20.492188 -14.867188 C 22.203125 -16.578125 23.667969 -18.976562 21.417969 -20.929688 C 19.171875 -22.839844 15.992188 -20.296875 14.28125 -18.777344 C 12.617188 -17.3125 11.199219 -15.601562 9.878906 -13.839844 C 9.292969 -12.960938 8.65625 -12.128906 8.117188 -11.246094 C 7.777344 -10.757812 6.699219 -9.535156 6.796875 -8.949219 C 6.796875 -8.949219 7.726562 -10.074219 7.777344 -10.125 C 7.433594 -9.632812 7.089844 -9.097656 6.796875 -8.558594 C 6.796875 -8.605469 6.015625 -7.53125 5.917969 -7.335938 L 4.597656 -5.035156 C 5.136719 -7.335938 5.769531 -9.632812 6.457031 -11.933594 C 6.796875 -13.105469 7.089844 -13.789062 7.875 -14.71875 C 8.558594 -15.550781 9.242188 -16.382812 9.878906 -17.214844 C 11.34375 -19.074219 12.667969 -21.078125 13.988281 -23.082031 C 14.964844 -24.550781 15.699219 -26.457031 16.824219 -27.679688 C 18.191406 -29.292969 19.367188 -31.445312 20.050781 -33.5 C 20.441406 -34.625 20.296875 -35.554688 19.757812 -36.679688 C 18.730469 -38.683594 16.675781 -40.492188 14.425781 -39.464844 C 12.566406 -38.632812 11.246094 -36.726562 10.269531 -35.015625 C 9.632812 -33.9375 9.046875 -32.8125 8.558594 -31.640625 L 7.578125 -29.585938 C 7.433594 -29.195312 7.285156 -28.558594 7.140625 -28.21875 C 7.140625 -28.167969 7.089844 -28.121094 7.089844 -28.121094 C 6.699219 -27.140625 6.40625 -26.210938 6.0625 -25.234375 C 6.015625 -25.285156 6.308594 -26.210938 6.308594 -26.210938 C 6.0625 -26.210938 5.28125 -23.863281 5.183594 -23.570312 C 4.742188 -22.398438 4.351562 -21.222656 3.960938 -20 C 3.226562 -17.800781 2.640625 -15.550781 2.199219 -13.253906 C 1.808594 -10.757812 1.074219 -8.3125 0.539062 -5.867188 C 0.34375 -4.792969 0 -3.714844 0 -2.640625 C 0 -2.054688 0.0976562 -1.417969 0.441406 -0.929688 C 0.539062 -0.832031 1.371094 -0.148438 1.371094 -0.195312 C 1.371094 -0.195312 1.320312 -0.246094 1.320312 -0.292969 C 1.566406 -0.0976562 2.054688 0.0507812 2.445312 0.0976562 C 2.101562 0.0976562 1.664062 0.0507812 1.566406 -0.0976562 C 1.90625 0.390625 3.226562 0.0507812 3.324219 0.0507812 C 4.449219 -0.195312 4.695312 -1.761719 5.28125 -2.640625 L 7.628906 -6.554688 C 7.824219 -5.527344 8.214844 -4.351562 8.703125 -3.472656 C 8.800781 -3.226562 10.222656 -1.273438 10.320312 -1.371094 C 10.320312 -1.417969 10.269531 -1.515625 10.269531 -1.566406 C 10.464844 -1.320312 10.660156 -1.125 10.90625 -0.976562 C 10.855469 -0.929688 10.710938 -1.125 10.660156 -1.027344 C 10.367188 -0.585938 12.46875 0.148438 12.8125 0.148438 C 13.496094 0.0976562 14.085938 -0.390625 14.71875 -0.636719 C 15.257812 -0.878906 15.796875 -1.074219 16.285156 -1.46875 C 16.871094 -1.957031 16.234375 -1.664062 16.628906 -1.957031 L 16.628906 -1.859375 C 16.773438 -2.054688 18.976562 -3.277344 19.074219 -3.375 C 20.195312 -4.207031 21.078125 -5.332031 22.054688 -6.359375 C 22.886719 -7.1875 23.570312 -8.117188 24.257812 -9 C 24.988281 -9.828125 25.96875 -10.515625 25.871094 -11.785156 Z M 15.257812 -35.699219 C 15.746094 -36.382812 17.164062 -38.097656 18.046875 -36.921875 C 18.925781 -35.75 17.410156 -32.960938 16.871094 -31.835938 C 16.136719 -30.171875 15.210938 -28.558594 14.28125 -26.996094 L 12.960938 -24.84375 C 12.46875 -24.109375 11.835938 -23.425781 11.542969 -22.691406 C 11.738281 -23.035156 12.128906 -23.472656 12.371094 -23.765625 L 13.449219 -25.480469 C 14.28125 -26.800781 15.0625 -28.121094 15.796875 -29.488281 C 16.1875 -30.125 16.578125 -30.859375 17.019531 -31.640625 C 16.53125 -30.613281 15.992188 -29.636719 15.453125 -28.65625 C 13.300781 -24.746094 10.808594 -21.078125 8.117188 -17.554688 C 9 -20.734375 9.925781 -23.914062 11.101562 -27.042969 C 12.226562 -29.976562 13.351562 -33.15625 15.257812 -35.699219 Z M 10.367188 -10.515625 C 11.980469 -12.765625 13.644531 -14.964844 15.550781 -16.96875 C 15.992188 -17.457031 18.4375 -20.246094 19.269531 -19.660156 C 20.050781 -19.074219 17.261719 -15.894531 16.871094 -15.453125 C 15.0625 -13.496094 12.863281 -11.492188 10.367188 -10.515625 Z M 10.660156 -28.070312 C 11.246094 -29.488281 11.785156 -30.957031 12.46875 -32.421875 C 12.519531 -32.617188 13.007812 -33.253906 13.253906 -33.695312 C 13.007812 -33.058594 12.273438 -31.984375 12.175781 -31.691406 C 11.394531 -29.683594 10.808594 -27.628906 10.125 -25.578125 C 9.339844 -23.132812 8.558594 -20.785156 7.921875 -18.339844 L 8.019531 -18.730469 L 7.972656 -18.679688 C 7.972656 -18.730469 8.019531 -18.730469 8.019531 -18.777344 C 8.65625 -21.859375 9.4375 -25.136719 10.660156 -28.070312 Z M 7.140625 -28.21875 L 7.089844 -28.167969 C 7.140625 -28.167969 7.140625 -28.21875 7.140625 -28.21875 Z M 7.089844 -28.121094 L 7.089844 -28.167969 Z M 7.089844 -28.121094 "/></g></g></g><g fill="#0a0b0a" fill-opacity="1"><g transform="translate(122.266981, 59.684992)"><g/></g></g><g fill="#0a0b0a" fill-opacity="1"><g transform="translate(135.959634, 59.684992)"><g><path d="M 28.511719 -11.6875 C 28.363281 -13.253906 26.847656 -11.738281 26.359375 -11.296875 C 25.527344 -10.613281 24.648438 -10.023438 23.816406 -9.339844 C 21.417969 -7.53125 19.171875 -5.625 16.921875 -3.714844 C 17.851562 -6.359375 19.21875 -9 20.6875 -11.394531 C 20.980469 -11.882812 21.222656 -12.324219 21.125 -12.910156 C 20.882812 -14.230469 19.121094 -14.769531 17.949219 -14.574219 C 16.921875 -14.378906 16.824219 -13.886719 16.628906 -13.203125 C 16.234375 -11.980469 14.816406 -10.90625 13.988281 -9.976562 C 13.644531 -9.585938 11.34375 -6.796875 11.296875 -6.796875 C 11.445312 -6.796875 11.542969 -6.894531 11.640625 -6.945312 C 10.5625 -5.820312 8.902344 -4.644531 7.578125 -3.617188 C 7.042969 -3.179688 5.476562 -1.613281 4.644531 -1.90625 C 2.296875 -2.640625 7.140625 -12.03125 6.992188 -12.078125 C 6.847656 -12.128906 5.28125 -8.265625 4.9375 -7.382812 C 5.722656 -9.78125 6.75 -12.128906 7.824219 -14.378906 C 7.777344 -14.183594 7.628906 -13.789062 7.726562 -13.789062 C 7.875 -13.742188 8.605469 -15.355469 8.460938 -15.40625 C 8.410156 -15.40625 8.363281 -15.355469 8.3125 -15.355469 C 8.460938 -15.550781 8.703125 -15.648438 8.800781 -15.941406 C 8.949219 -16.578125 8.214844 -17.261719 7.679688 -17.457031 C 6.503906 -17.949219 5.136719 -17.261719 4.597656 -16.136719 C 4.449219 -15.941406 4.304688 -15.601562 4.207031 -15.503906 C 4.058594 -15.210938 3.816406 -15.109375 3.617188 -14.816406 C 3.082031 -13.886719 2.789062 -12.8125 2.394531 -11.835938 C 2.25 -11.394531 0.539062 -6.503906 0.78125 -6.457031 L 0.878906 -6.554688 C 0.78125 -6.210938 0.734375 -5.820312 0.683594 -5.476562 C 0.585938 -5.527344 0.734375 -5.820312 0.636719 -5.820312 C 0.148438 -5.867188 -0.0507812 -2.738281 0 -2.394531 C 0.0976562 -1.417969 0.734375 -0.195312 1.664062 0.292969 C 2.101562 0.539062 2.691406 0.636719 3.226562 0.539062 C 3.421875 0.539062 4.351562 0.148438 4.011719 0.148438 L 4.304688 0.0507812 L 4.207031 0.148438 C 4.253906 0.195312 6.015625 -0.585938 6.308594 -0.683594 C 7.726562 -1.273438 8.949219 -2.394531 9.976562 -3.472656 L 13.203125 -6.699219 C 13.9375 -7.433594 14.574219 -8.558594 15.355469 -9.144531 C 14.914062 -7.777344 14.476562 -6.40625 14.085938 -5.035156 C 13.546875 -3.421875 13.253906 -1.417969 12.46875 0.0507812 C 11.835938 1.222656 10.222656 2.296875 9.292969 3.226562 C 7.972656 4.449219 6.652344 5.671875 5.429688 6.945312 C 3.714844 8.753906 2.199219 10.808594 0.683594 12.8125 C -0.878906 14.914062 -3.03125 17.898438 -1.074219 20.441406 C 0.246094 22.25 2.691406 23.375 4.890625 22.789062 C 6.894531 22.300781 7.679688 20.636719 8.65625 19.074219 C 11.785156 13.886719 13.496094 7.875 15.308594 2.152344 C 15.601562 1.320312 15.796875 -0.148438 16.285156 -0.832031 C 16.773438 -1.515625 17.753906 -2.101562 18.339844 -2.640625 C 19.804688 -3.960938 21.320312 -5.234375 22.839844 -6.457031 L 27.09375 -9.828125 C 27.726562 -10.320312 28.609375 -10.757812 28.511719 -11.6875 Z M 7.480469 13.691406 L 7.480469 13.742188 L 7.285156 14.132812 L 7.285156 14.183594 C 7.238281 14.183594 7.238281 14.230469 7.238281 14.230469 C 7.238281 14.28125 7.1875 14.378906 7.1875 14.378906 C 6.699219 15.503906 6.113281 16.628906 5.476562 17.703125 C 4.9375 18.582031 4.207031 20 3.179688 20.34375 C 1.222656 21.027344 1.074219 17.800781 1.371094 16.726562 C 2.101562 14.085938 4.058594 11.785156 5.722656 9.683594 C 7.433594 7.480469 9.242188 5.476562 11.296875 3.570312 C 10.125 6.945312 8.949219 10.367188 7.480469 13.691406 Z M 10.320312 13.007812 C 10.515625 12.421875 10.855469 11.785156 11.199219 11.199219 C 10.90625 12.078125 10.660156 12.960938 10.125 13.839844 L 9.683594 14.621094 C 9.878906 14.085938 10.074219 13.496094 10.320312 13.007812 Z M 11.980469 7.679688 L 11.101562 9.828125 C 11.199219 9.390625 11.296875 8.902344 11.492188 8.605469 C 11.6875 8.167969 12.078125 7.382812 11.980469 6.847656 C 12.03125 7.089844 12.078125 7.433594 11.980469 7.679688 Z M 10.417969 11.835938 L 10.613281 11.542969 C 10.5625 11.640625 10.515625 11.738281 10.417969 11.835938 Z M 10.417969 11.835938 "/></g></g></g><g fill="#0a0b0a" fill-opacity="1"><g transform="translate(160.899815, 59.684992)"><g><path d="M 22.496094 -12.175781 C 22.496094 -12.175781 22.542969 -12.128906 22.496094 -12.226562 C 22.25 -12.566406 21.910156 -12.324219 21.566406 -12.226562 C 20.148438 -11.933594 18.679688 -11.589844 17.214844 -11.34375 C 17.753906 -13.105469 18.289062 -14.964844 18.484375 -16.773438 C 18.582031 -17.457031 18.632812 -18.191406 18.484375 -18.875 C 18.386719 -19.316406 18.242188 -19.757812 17.996094 -20.148438 C 17.996094 -20.148438 17.410156 -20.882812 17.554688 -20.492188 L 17.507812 -20.539062 L 17.3125 -20.929688 L 17.507812 -20.734375 C 17.554688 -21.027344 16.726562 -21.566406 16.726562 -21.566406 C 15.503906 -22.789062 13.839844 -23.71875 12.175781 -22.789062 C 11.148438 -22.203125 10.320312 -21.222656 9.632812 -20.246094 C 9.390625 -19.902344 9.144531 -19.511719 8.949219 -19.121094 C 8.753906 -18.730469 8.460938 -17.457031 8.167969 -17.261719 C 7.921875 -17.066406 7.1875 -17.019531 6.847656 -16.824219 C 6.359375 -16.628906 5.917969 -16.382812 5.527344 -16.089844 C 4.597656 -15.503906 3.863281 -14.671875 3.179688 -13.839844 C 2.003906 -12.273438 1.417969 -10.515625 0.585938 -8.949219 C -0.976562 -5.964844 0.734375 -2.054688 3.617188 -0.636719 C 4.546875 -0.195312 5.625 0 6.601562 -0.0976562 C 7.628906 -0.246094 8.605469 -0.78125 9.390625 -1.371094 C 10.125 -1.90625 11.738281 -2.886719 12.03125 -3.714844 C 12.03125 -3.765625 11.933594 -3.714844 11.785156 -3.570312 L 13.203125 -5.234375 C 13.253906 -5.183594 12.863281 -4.695312 12.863281 -4.695312 C 13.203125 -4.546875 14.964844 -7.140625 15.160156 -7.335938 C 15.503906 -7.921875 15.84375 -8.558594 16.234375 -9.144531 C 16.578125 -9.585938 16.480469 -9.535156 16.96875 -9.730469 C 16.921875 -9.683594 17.554688 -9.878906 17.652344 -9.878906 C 18.191406 -9.976562 23.914062 -10.367188 22.496094 -12.175781 Z M 5.574219 -2.296875 L 5.527344 -2.296875 C 1.46875 -1.710938 6.160156 -10.320312 6.257812 -10.808594 L 5.964844 -10.367188 C 6.699219 -11.835938 7.382812 -13.007812 7.726562 -13.398438 C 8.265625 -10.953125 10.90625 -10.023438 13.058594 -9.730469 C 11.640625 -6.894531 9 -2.933594 5.574219 -2.296875 Z M 15.210938 -15.84375 C 14.867188 -14.476562 14.574219 -12.667969 13.839844 -11.445312 C 13.59375 -10.953125 13.742188 -11.101562 13.253906 -11.003906 C 12.960938 -10.90625 12.324219 -11.003906 12.03125 -11.050781 C 11.492188 -11.101562 10.855469 -11.199219 10.464844 -11.542969 C 9.78125 -12.128906 9.878906 -13.058594 9.976562 -13.886719 C 10.074219 -14.71875 10.320312 -15.503906 10.613281 -16.285156 C 10.757812 -16.578125 11.6875 -18.144531 11.542969 -18.4375 C 11.492188 -18.582031 10.953125 -17.703125 10.90625 -17.652344 C 11.199219 -18.191406 11.492188 -18.484375 11.738281 -18.828125 C 11.6875 -18.828125 11.738281 -18.875 11.785156 -18.976562 L 11.785156 -18.925781 L 11.835938 -19.023438 C 11.835938 -19.023438 11.835938 -19.074219 11.882812 -19.074219 C 12.617188 -20.050781 14.425781 -22.25 15.40625 -20.734375 C 16.136719 -19.464844 15.453125 -17.066406 15.210938 -15.84375 Z M 11.835938 -19.023438 L 11.882812 -19.074219 C 11.882812 -19.023438 11.835938 -19.023438 11.835938 -19.023438 Z M 11.835938 -19.023438 "/></g></g></g><g fill="#0a0b0a" fill-opacity="1"><g transform="translate(180.020617, 59.684992)"><g><path d="M 23.132812 -11.933594 C 22.984375 -12.863281 20.734375 -10.269531 20.636719 -10.171875 C 19.21875 -8.65625 17.851562 -6.992188 16.1875 -5.671875 C 15.40625 -5.085938 15.0625 -4.742188 15.109375 -5.917969 C 15.160156 -6.945312 15.550781 -8.019531 15.84375 -8.949219 C 15.992188 -9.4375 16.96875 -11.296875 16.675781 -11.640625 C 16.628906 -11.6875 16.53125 -11.542969 16.433594 -11.445312 C 17.117188 -12.8125 18.777344 -15.160156 16.578125 -15.796875 C 14.085938 -16.480469 12.8125 -13.789062 11.738281 -12.175781 C 10.710938 -10.710938 9.730469 -9.292969 8.558594 -7.972656 C 7.679688 -6.945312 6.308594 -4.988281 4.890625 -4.597656 C 3.570312 -4.15625 4.449219 -6.308594 4.644531 -7.042969 C 4.792969 -7.433594 6.554688 -11.980469 6.652344 -11.933594 C 6.554688 -11.933594 6.457031 -11.882812 6.359375 -11.738281 C 6.894531 -12.910156 7.480469 -14.085938 8.117188 -15.210938 C 7.972656 -14.914062 7.824219 -14.425781 7.824219 -14.425781 C 8.070312 -14.378906 9.242188 -16.773438 9.144531 -16.773438 C 9.046875 -16.726562 8.949219 -16.628906 8.851562 -16.480469 C 9.242188 -17.164062 9.730469 -17.507812 8.851562 -18.191406 C 7.972656 -18.875 6.40625 -19.023438 5.527344 -18.242188 C 4.449219 -17.359375 3.765625 -15.796875 3.226562 -14.574219 C 2.886719 -13.886719 2.296875 -13.496094 1.957031 -12.714844 C 1.273438 -11.199219 0.878906 -9.683594 0.488281 -8.117188 C 0.0976562 -6.601562 -0.148438 -5.035156 0.0976562 -3.472656 C 0.246094 -2.789062 0.488281 -2.003906 1.027344 -1.515625 C 1.171875 -1.417969 2.59375 -0.878906 2.492188 -1.222656 C 2.394531 -1.222656 2.296875 -1.222656 2.25 -1.273438 C 2.789062 -1.273438 3.324219 -1.515625 3.816406 -1.808594 C 3.863281 -1.761719 3.421875 -1.566406 3.421875 -1.515625 C 3.914062 -0.878906 7.628906 -4.644531 7.972656 -5.085938 C 9.195312 -6.652344 10.417969 -8.167969 11.6875 -9.683594 C 11.050781 -7.972656 9.976562 -5.625 11.003906 -3.765625 C 11.589844 -2.789062 12.714844 -2.25 13.789062 -2.347656 C 16.089844 -2.492188 18.144531 -4.988281 19.5625 -6.503906 C 20.492188 -7.53125 21.417969 -8.605469 22.105469 -9.78125 C 22.398438 -10.269531 23.179688 -11.34375 23.132812 -11.933594 Z M 15.699219 -10.953125 C 15.601562 -10.660156 15.550781 -10.269531 15.40625 -10.023438 C 15.40625 -9.976562 15.355469 -9.925781 15.308594 -9.878906 C 15.355469 -9.925781 15.355469 -9.976562 15.355469 -10.023438 C 14.964844 -11.246094 16.433594 -12.8125 16.921875 -14.035156 C 16.53125 -12.960938 16.039062 -11.980469 15.699219 -10.953125 Z M 4.058594 -4.644531 C 3.765625 -6.0625 4.792969 -8.019531 5.332031 -9.339844 C 4.644531 -7.433594 3.960938 -5.085938 4.058594 -4.644531 Z M 11.6875 -9.4375 C 11.6875 -9.632812 11.738281 -9.78125 11.882812 -9.878906 C 11.785156 -9.730469 11.738281 -9.585938 11.6875 -9.4375 Z M 11.6875 -9.4375 "/></g></g></g></svg>